<?xml version="1.0" encoding="utf-8"?>
<!-- Generator: Adobe Illustrator 17.0.0, SVG Export Plug-In . SVG Version: 6.00 Build 0)  -->
<!DOCTYPE svg PUBLIC "-//W3C//DTD SVG 1.1//EN" "http://www.w3.org/Graphics/SVG/1.1/DTD/svg11.dtd">
<svg version="1.1" id="Layer_1" xmlns="http://www.w3.org/2000/svg" xmlns:xlink="http://www.w3.org/1999/xlink" x="0px" y="0px"
	 width="438.5px" height="599.9px" viewBox="0 0 438.5 599.9" style="enable-background:new 0 0 438.5 599.9;" xml:space="preserve"
	>
<g id="back-r.svg">
	<path style="fill:#2384C4;" d="M438.5,94.9c0,1.3,0,2.7,0,4c-4.9,0.2-5.3,3.4-5.3,7.4c0,5.1,1.1,10.3-1,15.2
		c-1.2,1.3-2,0.4-2.7-0.5c-0.9-1.3-2.1-2.4-3.5-3.2c-2-1.5-4.1-2.8-5.4-5c-4.9-7.9-12.9-10.7-21.3-12.3c-2.9-0.6-5.9-1-8.7-2.1
		c-8.6-3.4-17.8-3.9-26.9-4.5c-4.2-0.3-7.8,3-12,2.7c-3.9-0.3-7.6,0.4-11,2.4c-1.3,0.5-2.6,0.7-3.9,0.6c-8.8,0.6-9.1,0.4-12.5-8.2
		c-0.6-1.5-1.4-3-2.4-4.2c-0.3-0.6-0.7-1.2-0.6-1.9c1.1-9.3-3.2-17.5-5.1-26.1c-0.2-1.1-0.2-2.6-1.2-3.2c-4.6-3.1-5.4-8-6.8-12.8
		c-1.4-4.7-6.4-5.4-9.9-7.8c-5.6-3.9-11.9-6.4-18.6-7.7c-1.8-2-2-4.4-0.2-6.3c1.8-2,3.7,0.1,5.5,0.7c8.6,2.7,15.8,8.3,23.9,11.8
		c12.6,5.4,22.9,14.4,34.9,20.8c5.2,2.8,11.4,3.9,15.6,8.4c10.6,9,22.7,15.3,35.9,19.5c4,1.3,8.3,0.4,12.1,2.2
		c7.8,1.1,15.1,4,22,7.7C432,93.8,435.8,92.4,438.5,94.9z"/>
	<path style="fill:#156D9E;" d="M438.5,598.9c-10.7,0-21.3,0-32,0c-3.4-6.5-3-13.5-2.6-20.4c0.6-12.6,2.4-25.2-0.8-37.7
		c-0.7-2.7-0.3-5.6-0.6-8.5c-0.6-6.8-3.3-9.7-10-11c-2.8-0.5-5.7-0.8-8.4-0.3c-9.7,1.7-19.5,1.7-29.2,3.8
		c-8.5,1.8-14.4,8.3-14.4,16.9c0,5.5-1.1,10.9-1.1,16.4c0,7.5,0.1,15,2.3,22.3c0.8,2.7,0.7,5.6,0.7,8.4c0.1,4.8-1.4,8.5-6.1,10.4
		c-3.9,0.2-7.7,0.2-11.6,0c-1.5-1.7-0.9-3.6-0.1-5.1c4.3-8.7,3.1-18.2,3.8-27.3c0.8-10,1.7-20.1,0.6-30.3c-0.5-4.9,1-10.2,2.8-15
		c1.5-4,4.4-7,8.4-8.8c11.1-4,22.5-5.5,34.2-5.7c5.7-0.1,11.2-1.4,16.9-1c5,0.4,9.3,1.9,12.7,5.8c2.4,2.7,1.4,6.1,2.6,8.9
		c0.2,0.6,0.2,1.1,0.2,1.7c0.1,3.8,0.6,7.6,2.4,11.1c1,2,0.7,4.3,0.7,6.4c-0.1,3.2,0.1,6.3,1.1,9.4c0.2,6.7,1.6,13.2,3.1,19.7
		c0.7,3.1,1.5,6.1,3.3,8.8c2.2,3.4,3.6,7,4.2,11.1c0.9,5.3,5.5,7.6,10.6,5.7c2-0.7,2.3-2.3,2.3-4c-0.2-11.8,0.8-23.6-0.6-35.4
		c-0.5-4.1,0.6-7.9,0.6-11.9c0.2-30.9,0.8-61.9,0.5-92.8c0-2-0.2-4-0.8-5.9c-0.5-8.4,0.3-16.9-0.6-25.3c1-4.1-0.2-8.5,1-12.6
		c2.2-2.4,2.9,0,3.9,1.2C438.5,471.5,438.5,535.2,438.5,598.9z"/>
	<path style="fill:#0E6CA9;" d="M431.4,121.8c0-6,0-11.9,0-17.9c0-7.9,0-7.9,7-5c0,53.3,0,106.7,0,160c-1.8,1.5-3.6,1.6-5.5,0.1
		c-2.4-3.8-1.5-8-1.3-12.1c0.6-13.2,0.2-26.4,0.2-39.7c0-1.2-0.4-2.3-0.7-3.4c-0.5-20.8-0.1-41.5-0.2-62.3c0-3.2-0.2-6.3-1.1-9.4
		C429.7,128.6,428.6,124.9,431.4,121.8z"/>
	<path style="fill:#196AA3;" d="M433.5,258.9c1.7,0,3.3,0,5,0c0,23.3,0,46.7,0,70c-2.5,2.8-1.8,6.2-2.1,9.5
		c-0.5,5.4,1.2,11-1.3,16.2c-2.7,1.3-2.6-1.1-3-2.4c-0.5-1.7-0.3-3.6-0.5-5.4c-0.2-2.1-0.9-3.9-3.3-4.4c-5.8-1.3-7.5-5.3-7.3-10.7
		c0.8-4.5,2.5-8.5,5.9-11.7c3.4-3.2,3.9-7.7,4.4-11.8c0.7-5.7,0.9-11.5,0.4-17.3c-0.5-8.9-0.2-17.8-0.2-26.7
		C431.5,262.3,431.7,260.3,433.5,258.9z"/>
	<path style="fill:#0B6BAC;" d="M406.7,1.2c10.6-0.1,21.2-0.2,31.8-0.3c0,17,0,34,0,51c-4.5,1.3-6.3,0.3-9.3-5.2
		c-0.1-0.6-0.2-1.2-0.2-1.8c-1.1-10.9-0.3-21.8-0.5-32.7c-0.1-8.2,0-8.2-8.1-8.4c-3.5-0.1-6.9-0.6-10.4-0.6
		C408.6,3.3,406.9,3.3,406.7,1.2z"/>
	<path style="fill:#185794;" d="M434.4,354.9c0-6.5-0.3-13,0.2-19.4c0.2-2.3,2.5-4.4,3.8-6.5c0,26.3,0,52.7,0,79c-1-0.7-2-1.3-3-2
		c-1.8-1.4-1.4-3.5-1.5-5.4c1.1-12.8-2.3-25.4-1.5-38.2C432.6,359.7,432.1,356.9,434.4,354.9z"/>
	<path style="fill:#21CDFB;" d="M438.5,80.9c0,4,0,8,0,12c-0.8,0.7-1.8,1.2-2.7,0.9c-4.9-2-10.8-1.7-14.3-6.5
		c-0.1-0.8,0.1-1.6,0.5-2.4c2-2.3,5.5-1.1,7.5-3.3C432.2,78.8,435.2,77.8,438.5,80.9z"/>
	<path style="fill:#3BFBFC;" d="M438.5,80.9c-2.8,0.2-6.1-1.9-8,2c-1.9-1.6-1.7-3.8-1.6-5.9c-0.3-2.6-0.6-5.3,0-7.9
		c0.5-2.5-0.5-5.1,0.8-7.4c1-1.3,2.1-1,2.7,0.3c1.4,2.9,4.2,4.5,6.1,7C438.5,72.9,438.5,76.9,438.5,80.9z"/>
	<path style="fill:#24DEFC;" d="M438.5,68.9c-4.9-0.4-7-3.7-8-8c-0.2-0.2-0.4-0.3-0.6-0.5c-1.4-2.6-1.4-5.2,0-7.9
		c4.2-1.2,6.3,2,8.7,4.4C438.5,60.9,438.5,64.9,438.5,68.9z"/>
	<path style="fill:#23A7E3;" d="M422.5,86.9c2,0.8,3.9,1.8,5.9,2.5c3.4,1.2,6.8,2.4,10.1,3.5c0,0.7,0,1.3,0,2
		c-5.7,0.4-10.7-1-15.9-4c-4.8-2.8-10.7-3.4-16.2-5c0.8-1.3,2.1-1.7,3.4-2.2C414.4,83.2,418.8,83.8,422.5,86.9z"/>
	<path style="fill:#12A4E0;" d="M438.5,56.9c-2.7-1.6-5.3-3.3-8-4.9c-0.2-0.1-0.4-0.2-0.7-0.3c-1.1-1.5-3-2.8-1.3-5.1
		c0.7-0.3,1.4-0.3,2,0.3c2.7,1.7,5.3,3.4,8,5C438.5,53.5,438.5,55.2,438.5,56.9z"/>
	<path style="fill:#116196;" d="M336.4,598.7c6-5.1,4.9-11.9,3.3-18c-2.8-10.7-2.7-21.3-1.5-32.1c0.4-3.6-0.3-7.4,0.4-10.9
		c0.6-2.9,2-6,4-8.1c6.3-6.8,15.2-7.4,23.7-8.7c5.4-0.8,10.8-1.6,16.3-1.7c4.9-0.1,10.1-0.2,14.8,1.1c4.7,1.3,6.7,6,7,10.7
		c0.9,12.7,1.7,25.5,2.1,38.2c0.3,9.9,0.1,19.8,0.1,29.8c-22.6,0-45.2,0.1-67.9,0.1C337.8,599.4,337.1,599.5,336.4,598.7z"/>
	<path style="fill:#1C4D76;" d="M336.4,598.7c0.7,0.1,1.5,0.2,2.2,0.3c-1.8,0.3-3.6,0.8-5.3,0.8c-27,0.1-53.9,0.1-80.9,0.1
		c-11.9,0-23.9,0.1-35.8,0c-13.6-0.2-27.3-0.7-40.9-0.8c-14.9-0.1-29.9-0.1-44.8,0c-3.1,0-6.3,0.5-9.4,0.8c-0.3-0.3-0.5-0.8-0.6-1.2
		c-0.1-2.3-1.6-3.9-2.9-5.6c-8.8-11.3-18.6-21.6-28.3-32.2c-3.4-3.7-6.4-7.6-9.8-11.3c-1.2-1.4-2.3-2.9-2.2-4.9
		c0.6-2.8,2.1-3.1,5.1-3c12.2,0.6,16.9,10.9,24.2,17.8c2.3,2.2,4.2,4.6,7,6.2c5,2.7,8.6,6.9,10.5,12.2c2,5.5,5.9,9.6,9.5,13.9
		c2.2,2.7,5.3,4.6,9.3,3.3c16.3-0.1,32.6-0.5,48.9,0.2c5.8-0.6,11.7-0.3,17.4,0.6c8.1,1.2,16.2,1.7,24.3,0.2
		c7.3-1.4,14.5-0.6,21.8,0.6c7.7,1.3,15.6,0.8,23.4,0.8c12.9,0.4,25.7-0.6,38.6-0.5c2.5,0,5-0.2,7,1.8
		C328.5,598.7,332.4,598.7,336.4,598.7z"/>
	<path style="fill:#328CC5;" d="M351.5,94.9c1.2-0.1,2.4,0.1,3.4-0.4c12.8-5.2,24.9-0.8,37,2.6c5.8,1.6,11.7,3.1,17.5,4.7
		c5.6,1.5,9.4,5.3,12.5,10c1.2,1.9,3,3.4,4.5,5.1c-2.6,3.7-6.1,6.4-10.1,8.6c-1.4,0.8-3.2,1.3-4.3,2.5c-4.8,5.2-10,6.1-16.1,2.3
		c-2.6-0.7-5.3-0.6-7.9-0.6c-5,0.1-9.8-0.8-13.8-3.5c-9.4-6.4-19.8-5.2-29.8-3.5c-6.3,1-11.9-0.1-17.5-1.8c-4-1.2-5.3-4.7-5.1-8.7
		c0.2-5.3,2.7-9.8,6.7-10.6c3.1-0.6,5.6-1.9,8-3.6c1.3,0,2.7,0,4,0C344.1,96.7,348.2,97.5,351.5,94.9z"/>
	<path style="fill:#3084BC;" d="M336.5,97.9c-0.9,3.3-2.5,5.4-6.6,5.1c-3.8-0.3-6.2,3.8-6.4,9.4c-0.2,4.2,1.5,6.4,5.9,7.7
		c11.2,3.3,22.2-1.9,33.3-0.1c2.7,0.4,5.8,0.7,8,2.2c6.5,4.3,13.3,6.5,21.1,5.8c1.9-0.2,3.9,0.6,5.8,0.9c5.1,3,7.8,7,6.4,13.2
		c-0.4,2,0.1,4,1,5.8c1.6,3.1,2.1,6.3,1.1,9.7c-0.5,1.7-0.5,3.4,0.8,4.7c3.4,3.4,3.9,7.8,3.3,12.1c-1.3,9,3.1,16.5,6,24.3
		c1.5,4.2,5.7,5.8,10.1,6.2c1.8,0.2,3.6-0.5,5.5,0.1c0.5,0.2,0.9,0.6,1.2,1.1c0.2,2.2,0.2,4.5,0,6.7c-0.2,0.3-0.3,0.7-0.5,0.8
		c-8.5,4.2-16.8,9.5-26.9,5.2c-4-7.3-9.3-14.4-4.7-23.4c1-1.9,0.8-3.9,0.1-5.8c-1.4-4.1-1.2-8.1,0.7-12.1c1.7-3.5,1.8-7-1.4-10
		c-1.5-1.4-2.2-3.4-2.4-5.4c-1-8.7-6.4-14.2-13.9-17.5c-5-2.2-10.1-4.3-15.1-6.4c-3.6-1.5-6.9-1.4-10.6,0
		c-5.8,2.3-11.8,3.4-17.9,0.5c-1.2-0.6-2.6-1-3.9-0.9c-7.5,1-12.3-3.3-16.4-8.5c-6.7-8.7-10.9-18.2-9-29.5c2.3-3,4.5-6.2,6.5-9.4
		c1.1-1.7,2.2-3.8,4.9-3.5c1.1,1.2,2.7,2.2,3.3,3.7C328.6,98.4,328.5,98.4,336.5,97.9z"/>
	<path style="fill:#227CAF;" d="M322.5,86.9c-3.3,4.3-6.7,8.7-10,13c-3,0.7-5.2-1.3-7.7-2.2c-0.4-0.3-1-0.5-1.1-1
		c-2-7.9-8.9-12-13.4-18c-0.7-0.9-1.2-2.3-2.6-2.1c-1.5,0.2-1.9,1.7-2.4,2.9c-0.6,1.6-0.9,3.2-0.6,4.9c0.2,1.7,0.5,3.4,0,5
		c-2.2,7.1-3,14.3-1.6,21.7c0.3,1.5,0,3.1-0.8,4.4c-1.2,1.9-2.7,3-4.7,0.7c-1.3-5,0.1-10.2-0.9-15.2c-0.3-2.9-0.1-5.7,0.3-8.5
		c0.9-3.1,1-6.2,1-9.3c0-16.6-0.1-33.1,0-49.7c0-2.2-0.6-4.7,1.5-6.5c4.5,0.7,9.2,1,13.5,2.4c3,1,5.2,4.1,8.1,5.3
		c6.6,2.8,9.9,7.5,10.3,14.5c0,0.9,0.6,2.4,1.2,2.6c5.6,1.6,4.8,6.4,5.7,10.5c0.5,2.3,1.9,4.5,2.7,6.8c0.6,1.6,1.4,3.3,1.5,5.1
		C322.6,78.2,322.5,82.6,322.5,86.9z"/>
	<path style="fill:#388EBC;" d="M431.5,205.9c-9.9,2.5-15.4-1.9-19.2-11c-3.7-8.8-2.1-17.9-4.4-26.3c-1.5-5.7-2.9-11-3.6-16.9
		c-0.5-4.4-2-8.8-2.1-13.7c-0.1-3.1-3-6.1-4.7-9.2c4.5,3.1,8,3.3,12.3-1.3c3.9-4.2,9.4-7,14.3-10.3c0.6-0.4,1.6-0.3,2.4-0.4
		c4.4-1,3.6,3.1,5,5c0,3.3,0,6.7,0.1,10c0.8,1.2,0.5,2.6,0.5,3.9c0,22.4,0,44.8,0,67.3C432,204,432.2,205,431.5,205.9z"/>
	<path style="fill:#4A9FCD;" d="M409.5,84.9c-1,0.3-2.1,0.7-3.1,1c-10.6-0.7-20.4-4.1-29.5-9.1c-6.5-3.6-12.3-8.5-18.4-12.9
		c-1.5-1.5-3.9-2.6-2.8-5.5c4.6-2.2,8.9-0.3,12.8,1.7c12.5,6.2,24.8,12.9,37.1,19.6C407.6,80.8,409.6,82,409.5,84.9z"/>
	<path style="fill:#259DDC;" d="M355.5,58.9c1,1.7,2,3.3,3,5c-15-7.7-29.7-15.8-43.4-25.9c-6.3-4.7-14.1-7.4-21.3-10.8
		c-4.4-2.1-9-3.8-14.3-5.9c0,2.1,0,3.9,0,5.6c0,20.1,0,40.2,0,60.3c0,1.9-0.6,3.8-0.8,5.8c-1.8-1.3-2-3.3-2.1-5.3
		c0-7.2-0.3-14.5,0.1-21.7c0.7-11.3,0.3-22.6,0.2-33.9c0-2.3-0.2-4.7-0.1-7c0.3-6.6,3.4-8.7,9.5-6.1c3,1.3,5.9,2.9,8.9,4.4
		c15.6,7.8,31.6,14.8,46.3,24c4.6,2.9,10.1,4.6,13.6,9.1C355.5,57.2,355.9,58,355.5,58.9z"/>
	<path style="fill:#3084BC;" d="M351.5,94.9c-2.6,4.9-6.7,4.4-11,3C344.1,96.9,347.8,95.9,351.5,94.9z"/>
	<path style="fill:#3585B6;" d="M435.4,418.9c0,8.7,0.1,17.3,0.1,26c0.6,2.4,0.9,4.8-0.2,7.2c-2.9-0.9-2.6-3.6-2.8-5.8
		c-0.4-4.5,0.9-8.9,0.3-13.4c-0.3-9.9-1.5-9.7-10.9-7.8c-10.3,2.1-20.7,2.9-31.2,0.8c-5.5-1.1-11.1-0.9-16.8,0.5
		c-12.3,3-25.3-2.7-30.9-13.6c-1.8-3.4-3.9-5.1-7.6-4.8c-0.6-0.2-1-0.5-1.5-0.9c-2.5-5.7-0.1-10.5,2.6-15.3
		c4.7-3.5,10.6-4.4,15.7-7.2c11.9-0.7,21.3,0.5,25.2,11.9c0.4,1.1,1.3,1.9,2.1,2.7c6.6,7.3,15.1,9.4,24.3,8.3
		c7.5-1,15.1-2.3,21.9-6.1c1.2-0.6,2.4-1,3.8-1.2c3.7-0.5,5.1,0.7,5.3,4.5C435.2,409.4,434.4,414.1,435.4,418.9z"/>
	<path style="fill:#217EB0;" d="M435.4,451.9c0-2.3,0.1-4.7,0.1-7c0.3,1.8,0.9,3.5,0.9,5.3c0.1,30.8,0,61.7,0,92.5
		c0,16.1-0.1,32.2,0.1,48.3c0.1,4.3-0.8,6.2-5.7,6.1c-9.7-0.3-10-0.4-11.5-10.2c-0.2-1.5-0.5-3.1-1.3-4.3
		c-7.3-10.1-8.3-21.8-8.6-33.6c-1.4-6.1,0.5-12.4-1.5-18.5c-0.9-2.8-1.3-5.8-2.5-8.5l0,0c0.7-7.4-3-12.8-8.2-17.4
		c-1.1-1-1.9-2.4-0.7-3.9c1.6-0.9,3.1-0.6,4.5,0.4c5.5,3.8,8.4,9.2,9.5,15.7c0.6,3.6,0.9,7.3,1.8,10.8c0.6,2.5,1.6,4.7,3.2,6.6
		c1.8,2.1,4,2.2,6.4,1.7c2.6-0.5,2.7-2.7,2.7-4.7c0-8.1,1.9-15.4,7.5-21.6c2.5-2.8,1.6-6.6,1.9-10.1c-0.1-1.5-0.2-2.9,0-4.4
		c-1-12.6-0.3-25.1-0.4-37.7C433.5,455.3,433.7,453.3,435.4,451.9z"/>
	<path style="fill:#2676AF;" d="M435.4,418.9c-0.3-4.1-0.8-8.1-0.9-12.2c-0.2-5.5-1.5-6.3-6.8-4.4c-6.2,2.2-12.4,4.6-18.8,5.8
		c-5.7,1.1-12,1.7-17.5,0.4c-4.8-1.1-10.5-2.9-12.9-8.6c-2.9-7.3-4.3-14.7-1.8-22.5c1.7-1.7,2.9-0.2,3.6,0.9
		c2.6,4.3,6.8,4.5,10.9,4.2c4.3-0.3,8.6-0.7,12.9-0.2c3.6,0.3,6.5-1.3,9.3-3c4.8-2.8,9.9-2.6,15-2.4c4.2,0.2,6.3,3.4,6.5,8.6
		c0.2,5.1-0.6,10.2,0.5,15.3c0,1.7,0,3.3,0,5C435.5,410.2,435.5,414.5,435.4,418.9z"/>
	<path style="fill:#217AAA;" d="M324.5,598.7c-15.3,0-30.6,0-46,0c-0.7-0.9-0.6-1.6,0.2-2.4c2.7-1.7,5.7-1.3,8.7-1
		c3.1-0.3,6.2-0.5,9.2-0.1c5.2-1.9,9.9-5.6,10.7-10.5c1.6-10,6.5-18.7,8.8-28.4c1.6-6.9,4.2-13.6,7.6-20c2-3.8,2.9-8,3.1-12.4
		c0.3-5.3,1.9-10.4,4.7-15.1c0.7-0.8,1.6-1.3,2.7-1.5c3.8,0.5,5.4,3.2,6.2,6.6c-9.2,6.8-10,16.5-9.3,26.7c0.3,5,0.4,10,0.1,15
		c-0.4,7.6-1.9,15.2-1.6,22.8C329.9,585.8,327.4,592.2,324.5,598.7z"/>
	<path style="fill:#1B80AB;" d="M340.5,513.9c-2-2-4-4-6-6c0.3-3.7,3.5-4.1,6.1-4.9c8.4-2.5,17-3.2,25.6-3.9c7-0.5,14,0,21-0.7
		c3.2-0.3,6.7-0.1,9.3,2.6c2.4,2.6,5,5,7,7.9c2.7,3.9,2.9,8.5,2,13.1c-0.3-0.6-0.8-1.1-0.9-1.7c-1.3-9.1-4.8-12.7-13.9-12.2
		c-15.2,0.8-30.5,0.4-45.3,5.1C343.8,513.5,342.1,513.6,340.5,513.9z"/>
	<path style="fill:#1B80AB;" d="M405.5,521.9c1.3,3.7,3.3,7.4,3.8,11.3c0.7,5.2,0.2,10.5,0.2,15.7c-0.1-0.1-0.3-0.2-0.3-0.4
		C407.9,539.6,406.7,530.8,405.5,521.9z"/>
	<path style="fill:#237EB6;" d="M432.5,212.9c0-2.3,0-4.7,0-7c-0.6-0.7-0.5-1.4,0-2c0.3,1.9,0.9,3.8,0.9,5.7
		c0.1,16.4,0,32.9,0.1,49.3c0,11,0,22,0,33c-2.2,2.7-1.7,6-2,9c-0.4,3.7-1.1,7.2-3.2,10.4c-1.7,2.5-2.3,5.5-3.1,8.4
		c-2.7,9-9.7,14.5-19,15c-1,0.1-2,0.1-3,0c-12.7-1.3-25.4-2.9-38.2-0.5c-3.5-1-7-2.1-10.6-3c-4.6-1.3-8.7-1.9-13.1,1.6
		c-4.6,3.7-12.6,2.1-16.9-2.3c-4.7-4.8-5.9-11-7.3-17.2c-0.1-0.3,0-0.7,0-1c0.6-5.3,10.7-14.9,15.9-15.1c4-0.1,8-0.5,11.9-0.9
		c5-0.5,10-0.4,14.8,1.4c2.7,1,5.5,1.4,8.3,1.3c2.2-0.1,3.9-0.7,4.6-3c0.9-3.1,3.2-4.4,6.2-5.1c5.3-1.3,9-4.1,9.4-10.1
		c0.2-3.4,2.4-5.2,5.7-6c2.3-0.5,4.9-0.3,7.3-2.5c-10.8,1.7-12.8-0.5-9.6-10.4c0.8-2.5,0.1-3.7-1.9-4.9c-1.6-1-3.2-1.8-4.9-2.5
		c-2.3-1.1-4.1-2.8-4.1-5.3c-0.1-4.8-2.7-8-6-11c-3.2-2.9-3.5-7.1-4.6-10.9c-1.1-3.9-2.5-7.6-5.2-10.6c-1.8-2-2.7-4.2-1-6.8
		c6.4-0.4,10.9,2.9,11,9c0.1,7.6,3.6,13.2,9.2,17.9c1.1,1,2.5,1.9,3.2,3.1c3.9,7.7,11.5,9.3,18.7,11.6c3.6,1.6,7.8,1.9,10.3,5.6
		c0.9,1.3,9.3,1.4,10.5,0.4c1-0.8,1-2.1,0.9-3.2c-0.5-4.7,0.8-9.2,1.9-13.7c1.8-6.9,0.8-13.9,1-20.9
		C430.8,217.4,430.5,214.9,432.5,212.9z"/>
	<path style="fill:#2884BA;" d="M432.5,203.9c0,0.7,0,1.4,0,2c-0.3,0-0.7,0-1,0c0-24.7,0-49.3,0-74c0.3,1.9,0.9,3.8,0.9,5.7
		C432.5,159.7,432.5,181.8,432.5,203.9z"/>
	<path style="fill:#195F8A;" d="M230.5,0.9c0.6,0,1.3,0.1,1.9,0.1c4.7,2.9,9.4,0.7,14.1,0c8,0,16,0,24,0c-1.5,3.8-5.2,2.2-7.9,3.2
		c-1.4,0.2-2.8,0.5-4.2,0.3c-1.4-0.3-2.8,0.1-4.2,0c-3.6-0.8-5.4,0.9-6.8,4.1c-2.3,5.5-2.3,11.1-0.8,16.6c3.4,13.1,1.7,26-1,38.9
		c-1.2,5.9-0.5,11.6,1.2,17.1c1,3.1,1.6,6,1.3,9.2c-0.3,10,0.8,19.9,0.3,29.9c-1,9.6-0.2,19.2-0.4,28.7c-0.1,6.4-4.5,11.9-10.8,12.3
		c-4.8,0.3-7.1-3.5-9.7-6.8c-1.3-7.2,0.2-14.6-1-21.8c0.2-18.4,1.4-36.8,2.3-55.1c0.4-8.1,0.4-16.3-0.2-24.4
		c-0.3-2.9-0.2-5.7,0.3-8.6c1.5-4.5,0.9-9.1,1-13.7C230.3,20.9,229.4,10.9,230.5,0.9z"/>
	<path style="fill:#2C6A8B;" d="M69.4,2.9c9.3-0.6,18.6-1.2,28-1.8c2.4,0,4.9,0,7.3,0c1.9,0.5,3.8,0.4,5.7,0c4.7,0,9.5,0,14.2,0
		c2.1,0.6,4.2,0.1,6.3,0.3c1.1,0.1,2,0.3,1.5,1.7c-1.3,1.4-3.2,1-4.7,1.4c-10,0.9-19.9-1.1-29.9-0.7C92.7,4,87.5,3.7,82.4,4.4
		c7.9-1,15.8-0.4,23.7-0.5c1.4,0,3.4-0.5,4.1,1c0.9,1.9-0.8,3.1-2.1,4c-3.1,2.5-1.9,3.4,1.2,4.3c5.6,1.6,11.5,2,17.1,3.3
		c3.2,0.7,4.6-1.1,3.6-4.2c-1.6-4.6,2.1-6.5,4.4-9.2c2.9-0.8,5.9-0.4,8.9-0.3c13.9,0.7,27.8,0.1,41.6,0.4c3.5,0.1,5.1,1.5,5.9,4.6
		c0.8,3.2,1.9,6.5,1.2,9.8c-0.9,5,0.5,8.7,4.6,11.6c2,1.4,3.4,3.3,2.5,5.9c-1.8,2.3-3.9,1-5.7,0.1c-2.9-1.3-5.1-3.6-7.3-5.8
		c-3.8-3.9-8.4-5.7-13.9-5.1c-3.5,0.3-6.9,0.2-10.4-0.1c-8.5-1.9-17.2-3.8-25.6-1.5c-6.5,1.8-12.9,1.7-19.4,2.2
		c-0.6-0.1-1.1-0.4-1.5-0.7c-0.6-0.7-0.7-1.4-0.5-2.2c0.4-1,1.1-1.6,2.4-2c-6.5-0.7-12.3-3.2-18.3-5c-3.6-1.1-3.5-2.9-0.2-6
		c-9.4,1.6-18.3-1.3-27.2-3.4C70.3,5.5,69.1,4.6,69.4,2.9z"/>
	<path style="fill:#3691BF;" d="M406.7,1.2c6.3,0.2,12.5,0.7,18.8,0.6c4.1-0.1,5.1,1.3,5.1,5.2c-0.2,13-0.1,26-0.1,38.9
		c-7.9,0.4-18.5-9.7-17.9-19.2c0.3-5.4,1-10.9,0.3-16.4c-0.4-3.4-1.6-4.5-4.9-4.5c-13.8,0.1-27.6,0.1-41.4,0c-2.8,0-5.7,0.2-8.4-0.7
		c-2.7-1.3-5.5-0.3-8.3-0.2c-7.7,0.3-15.4-0.8-23.1-0.5c-4.3,0.1-8.6-0.3-12.9,0.3c-2.6,0.3-5.2,0.3-7.7-0.4
		c-1.6-0.5-3.6-0.8-3.6-3.2c6.6,0,13.3-0.1,19.9-0.1C350.5,1,378.6,1.1,406.7,1.2z"/>
	<path style="fill:#206592;" d="M198.5,35.9c-1.1-1.8-1.8-4.1-3.3-5.5c-3.4-3.1-6.6-5.5-5.1-11.4c1-4.1-0.8-9.1-2-13.5
		c-0.2-0.9-3-1.5-4.6-1.5c-16.3-0.1-32.7-0.1-49-0.1c-2.6,1.8-5.2,2.8-7-1c1.7,0,3.4,0,5.1-0.1c3.5-1.8,7.1-0.2,10.6-0.3
		c4.1-0.2,8.2-0.7,12.3,0.4c3.7,0,7.4,0,11.1,0c5.3-0.8,10.7-0.8,16,0c5.8,0,11.7,0.2,17.5-0.1c9.2-0.4,18.4-1.2,27.6-1.8
		c0.3,0.5,0.3,1.1,0,1.6c-0.5,0.8-1.2,1.2-2,1.5c-4.1,0.6-8.3,0.3-12.4,0.3c-3.7,0-5.1,1.4-5.3,5.3c-0.5,6.9,1.9,13.4,2.3,20.1
		c0.1,2.6,0.3,5.3,0.2,7.9c-0.8,3.4-3.1,3.7-5.9,2.7C202.6,38.5,198.9,39.4,198.5,35.9z"/>
	<path style="fill:#2CBEF5;" d="M262.4,2.8c2.7-0.6,5.4-1.2,8.1-1.8c1.6,0,3.3,0,4.9,0.1c0.6,0.6,0.7,1.3,0.5,2
		c-3,3.3-0.6,6.4,0.3,9.6c0.2,0.6,0.9,1.1,1.6,0.9c7.1-1.6,11.6,4,17.1,6.5c9.9,4.4,19.7,9.4,29.8,13.4c1.6,0.6,3.1,1.3,4.4,2.2
		c4.8,3.3,9.9,6,15.4,8c3.4,1.2,6.7,2.9,8.8,6.2c0.4,2.7,3.4,5,1,8c-8.7-5.2-17.1-10.8-26-15.5c-13.8-7.4-27.9-14.3-41.9-21.4
		c-6.3-3.2-8-2.2-8,4.6c0,13.1,0,26.3-0.1,39.4c-3.6,0.9-3.3-1.8-3.4-3.8c-0.2-8.1,0.1-16.1-0.5-24.2c-0.1-1.4-0.4-2.6-1.1-3.7
		c-1.4-4.6,0.6-9.6-1.6-14.2c-1.2-2.9-4.3-3.3-6.5-4.9C260.9,10.7,260,7.6,262.4,2.8z"/>
	<path style="fill:#31EAFA;" d="M275.4,2.9c0-0.6,0-1.2,0-1.8c9,0,18.1,0,27.1,0c3.6,0.6,7.3,1.3,10.9,1.9c5.8,1,11.9,0.2,17.4,2.7
		c1.6,0.8,3.5,1.1,5.1,2.1c3.8,2.4,7.8,4.4,12.4,4.7c1.5,0.1,2.8,0.9,3.6,2.3c0.9,4.2,0.4,7.9-3.2,10.8c-2.4,1.3-4.8,0.9-7.1-0.3
		c-12.5-6.5-25.6-12-38.2-18.2c-3.3-1.7-6.9-2.3-10.6-2.3c-4.8,0-9.6,0-14.4-0.4C277.2,4.2,276.1,3.9,275.4,2.9z"/>
	<path style="fill:#1D84CE;" d="M227.6,1.9c0-0.3,0-0.6,0-0.9c1,0,2,0,2.9-0.1c0.3,1.1,1,2.2,1,3.3c0,13-0.1,26-0.2,39
		c0,0.6-0.5,1.2-0.7,1.8c-2.4-2-2-4.8-2.1-7.4c-0.1-9.8,0-19.6,0-29.4C228.5,6,228.4,3.9,227.6,1.9z"/>
	<path style="fill:#084463;" d="M246.5,1c-3.1,1-6.2,2.3-9.4,2.7c-1.4,0.2-3.1-1.7-4.7-2.7C237.1,1,241.8,1,246.5,1z"/>
	<path style="fill:#2C6A8B;" d="M182.5,2.9c-5.3,0-10.7,0-16,0C171.8,2.9,177.1,2.9,182.5,2.9z"/>
	<path style="fill:#2668A1;" d="M435.5,400.9c-0.3-4.4-0.8-8.8-1-13.2c-0.2-7.2-2.4-9.2-9.6-8.9c-4.2,0.2-8,0.3-11.7,2.9
		c-3.3,2.3-7.2,3.5-11.7,2.4c-2.9-0.7-6.2,0.2-9.4,0.5c-6.5,0.6-12.1-0.6-14.6-7.6c-4.5-6.3-10.8-8.9-18.3-9.4
		c-2.3-1.9-3.9-4.5-5.6-6.9c-2.8-4.1-1.8-8.2,2.8-10.1c4.3-1.8,8.1-4.3,12-6.7c9.4,0.3,18.2-3.9,27.9-3.1c7.2,0.6,14.2-2.7,20.3-6.9
		c1.7-1.2,3.3-2.9,5.8-1.8c0.6,7.2,0.7,7,7.6,8.6c1.5,0.3,2.6,3.6,3.2,5.8c0.8,2.8,0.8,5.7,1.1,8.6
		C434.8,370.2,435.1,385.5,435.5,400.9z"/>
	<path style="fill:#2C75AC;" d="M422.5,331.9c-4.7,2.7-9.1,6.2-14.1,7.8c-5.3,1.7-11.2,1.7-16.9,2.4c-1.6,0.2-3.3,0.1-4.9,0.3
		c-6,0.8-12.1,1.7-18.1,2.5c-5.5-1-10.4-3.9-15.9-5.1c-1.3-0.3-2.3-1.2-2.5-2.8c1.1-3.5,4-4.1,7-4.2c2.4-0.1,4.9,0.3,7.3,0
		c7.7-0.6,15.4-1.7,23.2-1.8c5.9-0.1,11.8,1.5,17.7,1.7c9.5,0.3,15.8-5.1,18.3-14.2c0.9-3.3,2.8-6.2,3.9-9.4c0.9-2.8,1.2-5.7,2-8.6
		c0.8-3.1-0.6-7.3,3.9-8.7c-0.7,8.2-1.3,16.4-2.1,24.6c-0.1,1.3-0.9,3.1-2,3.8C424.9,323,423.9,327.5,422.5,331.9z"/>
	<path style="fill:#45A0CC;" d="M358.5,3.9c17.3,0,34.7,0,52,0c3.3,0,4.9,0,4.3,4.6c-0.9,7-1,14.2-0.1,21.2
		c1.1,8.9,8.5,12.7,15.8,16.2c0,0.3,0.1,0.7,0.1,1c-0.7,0-1.4,0-2.1,0c-2.6,1.4-4.9,0.2-7-1.2c-6.7-4.3-14.2-7.2-20.1-12.8
		c-7-6.6-16.7-7.1-25.1-10.3c-8.4-3.2-16.8-6.1-24-11.6C351.9,5.5,353.1,4.2,358.5,3.9z"/>
	<path style="fill:#5CE6FC;" d="M430.5,76.9c0,2,0,4,0,6c-2.7,0.7-5.3,1.3-8,2c-8.5-3-16.2-7.7-24-11.8
		c-11.7-6.2-23.9-11.5-36.1-16.7c-4-1.7-7.9-3.6-10.3-7.4c-1.2-2.5-2.9-4.9-1.9-7.9c1.2-1,2.5-0.5,3.7-0.4
		c24.6,10.9,49.1,22.2,73.3,34C428.4,75.2,429.5,75.9,430.5,76.9z"/>
	<path style="fill:#4EC7F5;" d="M352.5,48.8c7.4,3.6,14.8,7,22.2,10.7c12,6,24,11.9,35.8,18.1c4.1,2.1,8,4.8,12,7.3c0,0.7,0,1.3,0,2
		c-4.3-0.7-8.6-1.3-13-2c-6-3.5-12.1-7-18.2-10.3c-7.2-4-14.3-8.3-21.8-11.7c-4.4-2-9.4-2.7-14.1-4c-0.3-0.4-0.7-0.7-1-1.1
		c-0.7-2.6-1.3-5.2-2-7.9c-0.3-0.3-0.4-0.5-0.3-0.7C352.3,49,352.4,48.8,352.5,48.8z"/>
	<path style="fill:#80FDFD;" d="M430.5,76.9c-3.4-1.2-6.9-2.1-10.1-3.6c-13.7-6.5-27.2-13.2-40.9-19.7c-8.6-4.1-17.3-7.8-26-11.7
		c-2.2-1.6-3.6-3.6-4.3-6.2c-0.3-8.3,3.2-10.5,10.7-6.6c13.5,7.1,27.2,13.8,40.9,20.6c6.7,3.3,13.2,7,20.2,9.6
		c4.6,1.7,8.8,3.9,9.5,9.5C430.5,71.5,430.5,74.2,430.5,76.9z"/>
	<path style="fill:#61EEFC;" d="M430.5,68.8c-4.5-7.4-12.9-8.6-19.8-12.1c-12.3-6.3-24.4-12.8-36.6-19.1c-5.7-2.9-11.4-5.7-17.2-8.3
		c-4.7-2.1-6.4-0.3-6.5,6.5c-4.2-1.9-4.7-4.7-1.8-10.4c5.6-6.7,6-7.1,13.5-2.6c15.8,9.5,32.6,17.1,48.9,25.5c5,2.6,9.5,6.1,14.9,8
		c2.2,0.8,3.3,2.6,4.5,4.4l0.1,0C430.5,63.5,430.5,66.2,430.5,68.8z"/>
	<path style="fill:#54E0FD;" d="M430.4,60.9c-15.4-8-30.8-15.9-46.1-23.9c-7.9-4.1-15.9-8.1-23.2-13c-4.7-3.1-8-3-11.6,0.9
		c-0.4,0.4-0.7,0.3-1,0c1-3.3,2-6.6,3-9.9c0.3-0.4,0.8-0.7,1.3-0.8c4.3,0.8,8,3.1,11.8,5c7,3.4,14.1,6.6,21.7,8.3
		c2.6,0.6,4.2,2.5,6.4,3.7c11,5.7,21.2,12.9,32.9,17.4c1.9,0.7,3.4,2,4.9,3.4l0,0.1C430.5,54.9,430.4,57.9,430.4,60.9z"/>
	<path style="fill:#44B6E4;" d="M430.4,51.8c-7.6-3.5-15.4-6.7-22.8-10.6c-6.8-3.6-13.2-8.1-20-11.8c-3.1-1.7-7-1.8-10.3-3.2
		c-8.4-3.6-16.6-7.6-24.9-11.5c-1-1-1.2-2.2-0.5-3.5c0.2-0.2,0.4-0.3,0.6-0.5c6.7,2.9,13.4,6.2,20.2,8.8c5.6,2.1,11.7,3.2,17.3,5.4
		c4.8,2,9.4,4.8,13.9,7.6c3.8,2.3,7.1,5.2,10.9,7.4c4.4,2.5,9.1,4.6,13.6,6.9C429.1,48.5,429.8,50.2,430.4,51.8z"/>
	<path style="fill:#135B8F;" d="M404.3,554.2c-2.5,6.8-4.9,14-8,20.9c-0.6,1.4-4.1,1.9-6.2,2c-2.2,0.1-4.5-0.8-6.8-1.2
		c-5.8-1.1-11.5-2.3-17.4-3.1c-2.1-0.3-4.5,0-6.6,0.4c-1.4,0.3-3.4,2.2-3.8,1.9c-1.9-1.7-4.9-4-4.8-5.9c0.5-9-0.4-18.5,4.3-26.7
		c1.2-2.1,4.3-3.1,6.6-4.5c0.7-0.4,1.8,0,2.4-0.5c5.7-4.4,12.8-3.8,19.3-5.6c2.2-0.6,4.5-0.6,6.8-0.5c6.1,0.2,8.3,4,9.5,9.5
		C400.5,545.1,402.5,549.2,404.3,554.2z"/>
	<path style="fill:#20749E;" d="M278.5,596.9c0,0.6,0,1.2,0.1,1.8c-10.9-0.6-21.8-1.3-32.7-1.6c-4.1-0.1-8.2,0.8-12.3,0.8
		c-9.7,0-19.4-0.3-29.1-0.5c-4-0.1-7.9-0.3-11.9-0.5c-2.6-2.9-2.1-6.3-1.2-9.4c0.9-3.2,0.9-6.2-0.3-9.2c-0.6-7.7-1.1-15.3,0.2-23
		c2.9-2.3,5.7-1.8,8,1.6c1.1,1.7,1,5,3.8,4.6c3.3-0.5,7,0.5,10.1-1.9c9.5-7.3,19.1-14.4,27.6-22.8c0.7-0.7,1.3-1.7,2.2-2
		c5.2-1.4,4-5.3,3.4-8.8c-0.6-3.9-3.5-4.9-6.8-5.5c-3-0.5-5.8-0.6-8.8,0.5c-4.3,1.5-8.9,0.6-13.3,0.8c-2.4,0.1-3.8-1.8-4.4-4.1
		c-1.4-5.1-4.8-7.1-9.9-7.3c-4.2-0.1-8.4-1.5-12.4,0.6c-2.4-2.2-2-5.1-1.7-7.9c0.3-3.3,0.6-6.6,0.7-9.9c1.4-5,4-8.7,9.8-9
		c7.2-0.4,12.1,3.5,15.5,9c5,7.9,5.4,8.4,14.8,7.2c0.7-0.1,1.3-0.1,2-0.1c3.2,0.2,6.3-0.6,9.4-1.3c5.5-1.4,10.3,0.3,13,5.1
		c4.1,7.2,8.5,14.3,9.2,23c0.4,4.9,0,9.4-1,14.3c-3.2,15.6-3.6,31.4-0.4,47.1c0.8,4,2.8,7.2,7.7,6.9c2-0.3,4-0.3,6,0.1
		C276.7,595.4,277.7,595.8,278.5,596.9z"/>
	<path style="fill:#296D92;" d="M192.5,578.9c0.4,1.9,1.2,3.8,1.1,5.6c-0.1,4.1-0.7,8.2-1.1,12.3c-17,0-34,0-51,0
		c-7.3-5.8-13.2-11.9-10.8-22.6c2.1-9.1,1.2-18.6,1.6-27.9c0.3-7-5.3-18-14.5-20.9c-2.2-0.7-4.2-0.7-6.4-0.1
		c-6.8,1.7-13.5,3.4-20.3,5.3c-4.2,1.1-7.6,4.1-11.8,5.2c-4.8,1.3-6.4,0.9-9.3-3.8c1.3-3.8,5.2-3.7,7.9-5.5c7.5-5.1,15.8-7,24.9-7.5
		c10.5-0.6,21.2,0.1,31.5-3.4c2.6-0.9,4.3-2.2,5.2-4.8c1.4-3.9,3.4-7,8.4-5.5c1.5,0.4,2.5-0.8,3.4-1.7c2.7-2.9,6.2-4.5,9.7-6
		c2.7-0.7,5.5-0.7,8.3-0.2c3.9,0.7,6.7,2.5,6.6,7c-1.6,7-0.5,14-0.2,21.1c0.3,8.1-1.2,16.4-2.5,24.6c-1.5,9.1-1.4,18.1-0.1,27.2
		c0.4,2.5,1.6,4.7,3.1,6.7c4.2,5.6,9,5.4,12.6-0.5C189.9,581.7,190.2,579.5,192.5,578.9z"/>
	<path style="fill:#3280B2;" d="M405.5,252.9c-5.3-1.9-11.6-2.5-15.5-5.9c-6-5.3-10.4-12.4-15.1-19c-1.2-1.7-1.4-4.5-1.3-6.7
		c0.2-4.6-0.5-8.2-5.7-9.4c-1.2-0.3-2.2-1.4-3.4-2.1c-2.5-3.1-2.2-7.1-3.7-10.6c-1.3-3-2.7-5.5-5.8-6.9c-3.6-1.7-5.9-4.8-6.8-8.7
		c-0.5-2.2-1.2-4.2-3.4-5.2c-9.9-4.3-16.5-13.1-25.2-19.1c-0.8-1.1-1.4-2.2-2.4-3.1c-5.5-5-5.5-5.5,0-10c-0.4-1.6-1.9-2.2-3.1-3
		c-3.9-2.4-5.7-5.9-5.7-10.4c0-0.8,0.1-1.7-0.2-2.5c-4.2-9.4-2.6-19.6-4.3-29.3c-0.3-1.7-0.4-3.4,1.6-4.2c2.3,1,4.7,2,7,3
		c0.3,4.7-0.2,9.7,1.3,14c1.8,5.2,4.9,10.1,8,14.6c3.6,5.2,8.3,8.9,15.4,7.5c1.3-0.3,3.1,0.4,4.3,1.1c5.8,3.5,11.1,0.7,16.7-0.6
		c2.8-0.7,6.1-1.8,8.4-0.9c8.2,3.3,16.2,7.2,24.2,11.1c5.9,3,7.6,8.7,8.8,14.7c0.4,2,1.7,4,3.1,5.6c1.9,2,2.9,8.3,0.8,11.1
		c-2.9,3.7-2,7.2-1,11.2c0.6,2.3-0.2,5-0.5,7.4c-0.4,2.9-1.8,5.9-1.2,8.5c0.9,4.3,3.1,8.4,4.7,12.6c3.1,2.7,3,6.1,2.1,9.6
		c-1.5,6.1-1.7,12,0.1,18.1C408.5,248.2,408.7,251.2,405.5,252.9z"/>
	<path style="fill:#2884BA;" d="M405.5,252.9c0.2-2.6,0.5-5.2,0.4-7.7c-0.2-4.9-0.9-9.8-1-14.6c-0.1-4.2,0.4-8.4,0.6-12.6
		c9.9,3.1,18.1-2.7,27-5c-0.3,9.6-0.6,19.2-1.1,28.8c-0.3,5-1,10.1-1.6,15.1c-0.3,2.5-0.9,4.1-4,3.4c-2-0.4-4.2,0.1-6.4,0.1
		c-1.3,0-3.4,0-3.6-0.6C414,254.8,408.6,255.5,405.5,252.9z"/>
	<path style="fill:#2F7BA9;" d="M305.5,96.9c0.9,9.1,1.7,18.2,2.7,27.2c0.3,3.2,0.8,6.5,1.8,9.5c0.9,2.6,2.3,5.2,4,7.4
		c1.2,1.5,3.3,2.2,4.8,3.5c0.8,0.6,1.4,1.6,2.1,2.4c-0.8,0.5-1.7,0.9-2.5,1.4c-1.4,0.9-2.9,1.8-4.3,2.7c1.1,1.1,2.3,2.2,3.3,3.4
		c1.1,1.4,2,2.9,3,4.4c-1.4,0.9-2.9,0.4-4.3,0c-7.7-2.7-11.6-8.4-13.2-16.1c-0.7-3.4-1.1-6.8-2.7-10.1c-3.9-7.8-11.5-7.3-18.3-8.5
		c-1.5-0.3-3.3,0.9-4.5-1.1c-0.6-2.2-1-4.4,1.1-6.2c4.8-1.5,2.5-5.4,2.7-8.4c0.5-5.2,0.7-10.3,0.9-15.5c0.2-3.1-0.1-6.2,0.5-9.2
		c0.7-3.3,2-6.5,3.4-9.7c0.2-0.4,2.5-0.5,2.8-0.1c3.3,5,7.1,9.1,12,12.7c2.1,1.5,2.2,5.7,3.3,8.6C304.5,95.9,305.1,96.4,305.5,96.9z
		"/>
	<path style="fill:#3CBBF9;" d="M274.5,32.9c0.6,1,1.8,2,1.8,2.9c0.2,8.3,0,16.7,0.2,25.1c0,1.3,1.2,2.6,1.8,4
		c0.1,9.4,0.1,18.7,0.2,28.1c0,2.6-0.1,5.3-0.1,7.9c-1.1,6.1-0.2,12.2-0.5,18.3c-0.1,1.4,0.7,3.2-1.1,4c-1.9,0.7-3.1-0.6-4.1-1.9
		c-0.8-1.5-1.1-3.1-0.9-4.7c0.1-18.1-0.5-36.2-0.4-54.2c0.1-8.8,1.9-17.5,1.7-26.3C273.1,34.7,273.5,33.6,274.5,32.9z"/>
	<path style="fill:#36AAE4;" d="M273.5,120.9c2.9,2.4,4,1.8,4-2.1c0.1-6,0.6-11.9,0.9-17.9c0,5.3,0.1,10.7,0.1,16c0,2.3,0,4.6,0,7
		c0.4,0.5,0.6,1.1,0.6,1.8c-0.5,7.8-0.2,15.6-0.2,23.4c0,2.7-0.5,5.3-1.2,7.8c-0.5,1.6-1.3,2.8-3.1,2.6c-1.8-0.2-2.4-1.6-2.5-3.2
		c-0.3-5.1-0.1-10.3-0.2-15.4c-0.4-4.7-0.7-9.4-0.5-14.2C271.6,124.5,271.6,122.4,273.5,120.9z"/>
	<path style="fill:#2390B3;" d="M337.5,391.9c-1,5-2,10-3,15c-0.2,1.9-1.8,2.7-2.9,3.9c-2.1,2.4-4,4.9-4.9,8
		c-4,13.6-12.2,23.6-25.4,29.3c-2,0.9-4,1.9-4,4.5c-0.1,4.5-1.9,8.3-3.9,12.2c-1.5,3-2.1,6.3-2.5,9.6c-2,5.2-2.7,10.8-3.6,16.2
		c-0.3,1.8-0.8,3.5-2,4.9c-3.5,2-5.7-0.6-7.8-2.5c-2.9-2.6-4.1-1.6-5.1,1.5c-1.1,3.4-2.6,6.8-3.4,10.3c-0.3,1.4-0.4,4.1-3.3,2.4
		c-0.7-2.9-1.5-5.8-1.7-8.8c-0.4-4.7-1.6-9.2-5.2-12.6c-1.1-1-1.9-2.4-2.3-3.8c-3.6-13.1-7.6-26.2-7.8-39.9
		c-0.1-8.4,2.9-15.6,8.3-21.9c2-2.3,4.1-3.8,7.4-2.5c2.9,1.2,4-0.3,4.2-3c0-0.3,0.1-0.7,0.1-1c-0.3-14.3,0.6-28.6,1.4-42.9
		c0.1-1.5-0.1-3-0.4-4.5c-0.1-2.7-0.4-5.5,1.6-7.8c4.6-1,5.3,2.3,5.6,5.5c0.4,3.6,0.1,7.3,0.1,10.9c0,2,0.1,4,0.8,5.9
		c0.8,10.6,0.9,21.3,0,31.9c-0.4,4.3-0.8,9,3.1,11.3c4.2,2.5,8.4-0.1,11.8-2.9c3.5-2.8,7.2-5.3,11.2-7.4c3.5-1.9,6.3-4.6,8.8-7.9
		c4.2-5.6,9.4-10.3,15.1-14.3C330.7,389.6,334.3,387.9,337.5,391.9z"/>
	<path style="fill:#2380AF;" d="M337.5,391.9c-4.5-1.9-8.4-0.4-11.2,2.9c-4.6,5.3-11.4,8.5-14.3,15.6c-0.7,1.7-3.3,2.5-5.1,3.7
		c-5.8,3.8-11.5,7.7-17.3,11.4c-1.1,0.7-2.4,1.2-3.6,1.4c-7.7,1.3-10.1-2.5-10.3-10.6c-0.3-11.4,0.5-22.9,0.8-34.3
		c-0.8-1.2-0.4-2.5-0.4-3.8c3-2.2,4.9,0.1,6.9,1.8c2.1,1.9,3.6,4.4,5.5,6.4c4.9,5.1,9.7,5.5,15.5,1.7c4.5-2.9,8.1-6.8,12.8-9.5
		c8-4.7,16.6-6.7,25.6-7.5c3.4-0.3,7,0,9.9,2.4c1.1,4.1,2.3,8.3,0.1,12.5C347.5,387.9,342.5,389.9,337.5,391.9z"/>
	<path style="fill:#3594B4;" d="M289.5,473.9c0.8-3.3,1.6-6.7,2.5-10c1.1-4.1,2.1-8.2,3.6-12.2c0.7-1.7,2.2-4,3.7-4.5
		c11.9-3.5,18-13.2,24.1-22.6c2.2-3.5,2.6-8.1,4.7-11.8c1.4-2.4,4.2-4,6.4-6c0.3,0,0.7,0,1,0c2.1,2.9-0.1,5-1.6,7
		c-1.7,2.3-1.8,4.1-0.5,6.7c3,6,4,12.5,4,19.2c-0.3,1.2-1,2.1-1.9,2.9c-8.3,7-11.7,16.2-12.3,26.7c-0.1,1.7-0.2,3.3-0.3,5
		c-0.3,7.8,2.5,11.2,10.5,13c1.3,0,2.5,0,3.7,0.7c2.1,1.5,3.8,3.3,4.7,5.8c-1.8,5.7-6.4,9.5-9.3,14.5c-1.5,1.5-2.9,3-5.3,2.4
		c-1.2-0.4-1.8-1.4-2.1-2.6c-2.7-9.4-7.9-17.4-13.3-25.3c-2.4-3.6-5.2-4.8-9.3-2.8c-1.8,0.9-3.8,1.4-5.8,0.9
		C293.5,479.4,291.7,476.4,289.5,473.9z"/>
	<path style="fill:#3792B4;" d="M336.5,439.9c-1-5-0.8-10.7-3.3-14.9c-3.8-6.4-2.8-10.9,1.9-15.7c0.5-0.5,0.3-1.6,0.4-2.4
		c4.7-2.2,6.9-0.6,8.9,4.3c4.2,10.1,15.8,15.1,26.4,14c9.1-0.9,18.4,0,27.6-0.3c8.7-0.4,17.3-1.4,25.9-2.1c0.8-0.1,1.6-0.6,2.4-0.7
		c5.3-0.9,7.7,1.1,7.7,6.4c0,1.2,0,2.3,0,3.5c-1.3,1.5-0.8,3.5-1.2,5.2c-1,4.4-4.1,6.4-7.5,3.8c-6.5-5-13-4.4-20-1.8
		c-2.7,0-4.6-1.7-6.6-3.1c-2.9-2.2-5.8-4.6-9.1-6c-5.6-2.3-11.4-2.8-16.4,1.5c-5.3,4.5-11.9,7.2-16.9,12c-1.7,0.6-3.4,0.5-4.8-0.5
		c-4.1-2.8-8.4-3.8-13.3-2.5C337.9,440.8,337.1,440.5,336.5,439.9z"/>
	<path style="fill:#409ABC;" d="M405.5,437.9c7.1-3.5,14-4.7,20.5,1.6c2.4,2.3,4.8,1.7,5.8-2c0.6-2,1.7-3.7,2.6-5.6
		c0.3,6.7,0.7,13.3,1,20c0,14.7,0,29.3,0,44c-2.2,1.4-3.6-0.2-4.5-1.7c-2.4-3.8-5.4-7.1-8.2-10.6c-0.3-6.3-0.2-12.5-1.6-18.8
		c-1.7-7.8-6.1-12.5-13.3-14.6c-6-1.8-12.1-3.6-18.4-4.6c-1.5-0.2-3-0.4-4.1-1.6c0-2.6,2.2-2.6,3.8-3.1
		C394.4,439.2,399.9,438,405.5,437.9z"/>
	<path style="fill:#337BAC;" d="M352.5,385.9c-0.3-4.3-0.7-8.7-1-13c2.2-2.6,4.7-4.9,8-6c1.3,0,2.6,0.1,3.9,0
		c7.7-0.8,11.9,3.2,14.1,10c0.3,7.7,0.7,15.3,1,23c-2-3-3.6-6.2-6-8.8C367,385.1,359.5,386.2,352.5,385.9z"/>
	<path style="fill:#3498C4;" d="M423.5,483.9c2.2,2,4.4,4,6.5,6.1c1.9,1.9,3.6,3.9,5.4,5.9c0,1.3,0,2.7,0,4
		c-3.1,4.3-7.3,7.6-10.5,11.9c-3.1,4.2-7.1,4.5-11.4,1.6c-4.8-3.2-7.3-8.1-10.1-12.8c-1.3-3.8-5.3-5.4-7.2-8.8
		c-0.6-2.4-1.1-4.8,1.2-6.6c1.9-1.1,4.1-1.9,6.1-1.3c6,1.9,12,1.1,17.9-0.2C422.2,483.5,422.8,483.7,423.5,483.9z"/>
	<path style="fill:#2292B2;" d="M397.5,491.9c2.3,2.7,4.7,5.3,7,8c-0.6,2.1-2.2,2.2-4,2c-1.3-0.3-2.7-0.7-4-1
		c-18.6-0.7-37.2-0.6-55.4,3.9c-2.3,0.6-4.4,2-6.6,3c-0.7,0.3-1.3,0.7-2,1c-0.3-0.2-0.4-0.5-0.3-0.7c0.1-0.2,0.2-0.3,0.3-0.3
		c3-4.7,6-9.3,9-14c1.9-3.1,5-2.9,8-2.9c9.5-0.1,18.9,0.2,28.4-0.1c5.5-0.2,10.9-1.4,16.3,0C395.3,491.1,396.4,491.3,397.5,491.9z"
		/>
	<path style="fill:#2787BD;" d="M400.5,501.9c1.3-0.7,2.7-1.3,4-2c2.8,3.6,5.1,7.7,8.4,10.8c5.3,5,8.7,4.1,12.7-1.9
		c2.3-3.4,5.3-6.3,8-9.4c0.2-0.2,1.2,0.3,1.8,0.5c0.7,5.5-1,9.9-4.5,14.5c-2.8,3.8-3.3,9.4-4.4,14.4c-0.8,3.4,1.5,8.2-4.3,9.1
		c-5.6,0.9-9.2-1.4-11-7.5c-0.8-2.7-1.5-5.5-1.7-8.3C409.1,514.2,406.8,507.2,400.5,501.9z"/>
	<path style="fill:#288FCB;" d="M266.5,507.9c1.7-5.4,3.4-10.9,5.3-16.3c1-2.7,2.1-5.2,5.2-1.2c1.8,2.3,4.9,3.7,7.5,5.5
		c2.9,2.2,3,5.5,2.9,8.6c-0.4,10.8,0.3,21.6,1.4,32.3c1.1,11,0.9,22.2,3.1,33.1c1.1,5.7,0.9,11.6,0.3,17.4c-0.4,3.7-1.6,7.1-4.6,9.6
		c-3,0-6,0-9,0c-1,0-2-0.1-3-0.1c-2.3-1.8-2.6-4.4-3-7.1c-1.7-12.3-2.9-24.6-4.3-37c-1.1-9.8-1-19.5-1.2-29.2
		c-0.1-2.5,0.1-5-1.2-7.3c-0.3-0.5-0.5-1.1-0.6-1.7C265.2,512.3,264.3,509.8,266.5,507.9z"/>
	<path style="fill:#357BAA;" d="M332.5,507.9c0,0.3,0,0.7,0,1c-2,8.5-3.5,17.1-6.1,25.4c-3.5,11.4-7.5,22.6-11.9,33.7
		c-2.4,6-5.2,11.7-5.1,18.3c0,0.8-0.8,1.8-1.4,2.5c-2.3,2.5-4.6,5.1-7.2,7.4c-0.7,0.6-2.2,0.5-3.3,0.6c-1.6-1.5-1.9-3.5-1.9-5.5
		c-0.3-15.8-3.8-31.3-3.3-47.2c0.2-5.5-1.8-11.1-2.2-16.7c-0.2-2-0.4-4,0.3-5.9c2.7-4.8,6.9-4.5,11.3-3.3c5.5,1.6,10.9,2.6,16.6,0.7
		c3.4-1.1,6.7-2.1,7.1-6.4c0.1-1.2,1.1-2,2.1-2.6C329.1,509.2,330.8,508.5,332.5,507.9z"/>
	<path style="fill:#3386BA;" d="M291.5,520.9c1.6,17.1,3.3,34.1,4.8,51.2c0.7,8.2,0.8,16.5,1.2,24.8c-3.3,0-6.7,0-10,0
		c2.6-7.1,3.7-14.4,3-21.9c-1.1-11.2-2.5-22.3-3.5-33.5c-0.7-7.6-1-15.2-1.4-22.8c-0.4-7.6-0.7-15.2-1-22.8c1.7-7.3,3.3-14.7,5-22
		c2.3,2,4.7,4,7,6c1,1.8,0.4,3.6-0.2,5.3c-0.6,1.8-1.1,3.6-0.8,5.4c0.9,4.9,0.5,9.5-2.3,13.9c-1.3,1.9-0.4,4.2-0.2,6.4
		C293.3,514.3,293.8,517.8,291.5,520.9z"/>
	<path style="fill:#207FAF;" d="M316.5,157.9c1.3,0.3,2.7,0.7,4,1c4.1,3.3,8.1,6.7,12.3,9.7c4,2.9,8.2,5.6,12.5,8.1
		c2.5,1.4,3.8,2.8,4.5,5.9c0.6,2.9,2.8,6.7,5.2,7.8c7.8,3.2,7.8,10.3,9.4,16.6c0.2,0.9,0,2,0,3c1,2.2,2.1,4.4,3,6.7
		c2,5.2,4,10.4,6,15.6c0.6,1.6,1.1,3.6,2.3,4.7c3.9,3.3,7.3,6.5,6.7,12.3c-0.1,1.2,1.8,2.8,3.1,3.8c1.4,1.1,3.4,1.4,4.8,2.5
		c2.3,1.8,8.6,2.5,2.4,7.6c-1.2,1-1.1,4.1-1.1,6.2c0,0.8,1.2,2.3,1.9,2.4c1.7,0.1,3.5-0.4,5.1-0.9c1.1-0.3,2-1.2,2.9-1.8
		c0.5,1.5,1.6,3,1.4,4.4c-0.1,1-1.8,1.9-3,2.5c-0.8,0.4-2,0-3,0.2c-4.3,0.8-8.6,1.2-7.2,7.8c0.7,3.4-5.6,8.5-10.7,8.9
		c-3.3,0.3-4.6,1.4-5.1,4.7c-0.2,1.4-2.8,3.2-4.4,3.3c-3.1,0.3-6.4,0.1-9.3-0.9c-6.5-2.3-12.9-2.4-19.6-1.1c-2.2,0.4-4.7,0.3-7,0.1
		c-5-0.4-8.4,1.2-9.6,6.5c-0.3,1.1-1.4,2.3-2.5,2.8c-4,1.9-3.9,4.7-2.4,8.3c1.7,3.7,2.5,8,4.7,11.3c4.6,6.9,12.6,7.2,18.8,1.7
		c1.2-1,3.5-1.7,4.9-1.4c5.6,1.3,11.1,3.2,16.6,4.9c-1.8,0.6-3.5,1.4-5.3,1.9c-2.9,0.8-5.8,1.4-8.6,2.1c-0.4,0.7-1,1.4-1.7,1.7
		c-6.5,3.2-23.3,0.8-28.7-4.2c-3.5-3.3-6.9-6.7-10.5-9.8c-5.5-4.7-7.2-17.7-3-23.8c1.9-2.8,1.6-6.5,4.4-8.7c3.6-0.9,4.8-3.2,4.9-6.9
		c0.1-6.7-3.4-11.9-5.8-17.8c-4.4-10.9-8.3-22.1-1.9-33.8c0.9-1.6,1.4-3.3,1.6-5.2c0.1-1.7,0-3.6,0.9-4.9c6.5-8.8,3.7-19.4,5.3-29
		c1.3-7.5-3-15.2-6.4-22.2C306.4,165.9,309.3,159.6,316.5,157.9z"/>
	<path style="fill:#22698D;" d="M228.6,154.9c0.3,0.1,0.8,0.1,0.9,0.3c4.7,7,10,4.1,15.1,0.6c1.1-0.8,1.8-3,1.8-4.5
		c0.2-10.1,0.1-20.3,0.1-30.4c2.4,0,3,1.8,3.4,3.6c0.5,2.3,0.6,4.6,0.6,7c-0.4,15.2,0,30.3,0.7,45.4c1.1,24.1,1.8,48.2,1.1,72.3
		c-0.3,12.2-0.1,24.2,1.9,36.2c0.7,4.4-1,8.5-1.6,12.8c-0.2,8.9-3.5,16.5-8.7,23.7c-2.5,3.4-2.8,8.1-3.4,12.4
		c-1.2,8.1-3,16-4.7,23.9c-0.5,2.3-0.9,5.7-3.9,5.6c-3.1-0.1-3.1-3.5-3.3-5.9c-0.8-8.3-3.4-16.2-5.3-24.2c-0.2-3.2-0.4-6.4,0.1-9.5
		c3.2-6,0.3-11.9-0.2-17.9c-0.3-6.9,0-13.9-0.2-20.8c-0.2-0.9-0.1-1.8,0.1-2.7c0.7-2.6,1.2-5.2,1-7.9c-0.6-9.3,0.8-18.6,1.1-27.8
		c0.2-4.1,2.1-8,3.6-11.8c1.1-2.7,1.7-5.2,0.8-8.2c-1.5-5.1,0.9-9.8,1.9-14.6c2-10.1,1.7-20.2-0.8-30.1c-0.9-3.6-1.8-7-1.7-10.7
		c0-4.1,0.5-8.3-1.5-12.2C226.7,157.9,227,156.1,228.6,154.9z"/>
	<path style="fill:#1D6FA2;" d="M250.5,298.9c3.7-11.6,0-22.9-1.2-34.3c-0.3-3.5,1.1-7.1,1.1-10.7c0.1-22.6,0.3-45.3,0-67.9
		c-0.3-20.1-1.2-40.1-2-60.2c-0.1-1.7-1.2-3.3-1.9-4.9c0-10.3,0-20.7,0-31c2.2-0.3,2.9,1.2,3.4,2.8c2.7,7.9,4.6,16,3,24.4
		c-0.3,1.6-0.3,3.3,0,4.9c2.4,12.3,2.1,24.7-0.2,37c-0.8,4.1,1.8,8.1,1.4,12.2c0.8,16.3,1,32.6,2.1,48.8c0.5,7.9,1.9,15.5,6.1,22.4
		c1.9,3.2,3.7,6,8.1,4.9c0.9-0.2,1.5,0.5,2,1.2c0.8,1.5,1,3.2,1,4.8c0,27.5,0.1,55.1,0,82.6c0,0.8-0.1,1.7-0.3,2.5
		c-0.7,2.7-1.3,5.4-1.4,8.3c-0.1,1.6-0.9,2.9-2.6,3.3c-1.6,0.4-3-0.5-3.2-1.7c-1.2-8.2-9.5-11.1-12.6-17.8c-0.4-7.9-3.3-15.5-2-23.6
		C251.8,304.4,251.5,301.6,250.5,298.9z"/>
	<path style="fill:#1C76B1;" d="M254.5,2.9c1.3,0,2.7,0,4,0c0.4,4.7,1.8,9,4.1,13.1c1.8,3.3,2,6.9,0.7,10.6
		c-3.4,7.3-3.3,15.2-3.7,22.9c-0.4,6.9-1.5,13.5-4.2,19.8c-3.3,7.9-2,15.4,3.2,21.5c4.7,5.6,6.4,11.4,5.9,18.3
		c-0.3,4,0.2,8-0.5,11.9c-1.5,7.6-3.7,15-3.6,22.8c0,3.2-0.1,6.9-4.8,7.2c-2-5.7-0.5-11.5-0.4-17.2c0.3-9.4,1.2-19.1-0.9-28.3
		c-1.7-7.5-4.7-14.8-7.3-22.2c-2.2-6.4-2.8-12.9-0.8-19.5c2.1-7,4.4-14,2.8-21.5c-0.6-2.8-0.1-5.7,1-8.3c3.1-7.3,3.2-14.4,0.2-21.8
		C247.9,6.8,249.4,4.4,254.5,2.9z"/>
	<path style="fill:#1D6EAC;" d="M254.5,2.9c-4,2.1-4.7,5.4-2.7,9.1c3.9,7.4,2.9,14.6,0.2,22.1c-1,2.7-1.9,6-1.2,8.7
		c2,8.3-1.5,15.5-3.4,23.2c-1.5,6.2-1.4,12.4,1.2,18.8c4.4,11,10.4,21.6,8.2,34.5c-1.3,7.5-0.2,15.4-0.3,23.2
		c-0.1,2.8-0.6,5.6-1,8.4c2.3,6.9,0.6,13.6-1.3,20.2c-0.2,0.6-1,0.8-1.7,0.8c-0.5-3.1-1.1-6.1-1.5-9.2c-0.2-1.1-0.5-2.4-0.3-3.4
		c3-12.4,2.4-24.8,0.2-37.3c-0.9-4.9,1.1-10.3,0.4-15.3c-0.8-5.7-3.1-11.2-4.8-16.7c-0.7-3.4-1.3-6.7-2-10.1
		c-1.8-9.3-0.5-18.3,1.3-27.5c1.3-7.2,0.7-14.9-0.3-22.2c-1.1-7.9-2.5-15.2,0.4-23.3C248,1,251.4,3.6,254.5,2.9z"/>
	<path style="fill:#2AA4CD;" d="M230.4,52.9c-0.6,21.2-1.3,42.4-1.8,63.5c-0.1,5.5-0.1,10.9-0.1,16.4c-0.4,9.9-1.7,19.7,0.8,29.5
		c0.2,0.8,0.3,1.7,0.1,2.5c-0.7,5.3-0.3,10.6,0,15.9c0.6,13.4-1,26.8-1.3,40.2c-0.9,3-1.1,6.2-1.3,9.3c-0.1,1.3-0.5,2.7-2.1,2.9
		c-1.6,0.2-2.2-1-2.8-2.3c-0.9-1.9-0.8-3.9-0.8-5.8c0-9.4,0-18.8,0-28.3c-0.2-8.6-0.5-17.3-0.3-25.9c0.6-18.6,0.6-37.2,0.8-55.8
		c0-1.8,0.3-3.7,1.7-5.1c0.1-1.2,2.1,1.4,2-1.2c-0.4-17.2,2.4-34.2,2.5-51.3C227.8,55.7,227.6,53.4,230.4,52.9z"/>
	<path style="fill:#257CA3;" d="M226.4,220.8c0.4-17.2,0.8-34.4,1.1-51.6c0.2-10.4,0-20.8,0-31.2c0-1.7,0.6-3.5,0.9-5.2
		c0,7.3,0.1,14.7,0.1,22c3.9,8.7,1.2,18.3,4.2,27.5c3.1,9.7,3.2,20.7,0.3,31.3c-1.3,4.7-4.3,9.9-0.9,15.3c0.6,1,0.2,3.1-0.5,4.3
		c-6.4,11.1-5.6,23.4-6.2,35.5c-0.3,4.7-0.6,9.5-1,14.2c-1.8-1.4-1.9-3.4-2-5.4c-0.5-11.3,0.4-22.5,1.4-33.7
		C224.5,236.1,226.2,228.6,226.4,220.8z"/>
	<path style="fill:#26ADE8;" d="M230.4,52.9c-0.3,0.9-0.8,1.8-0.9,2.8c-0.8,9.3-1.8,18.7-2.3,28c-0.5,9-0.5,18-0.7,27.1
		c0,1.8,0,3.5,0,5.3c-0.5,0-1,0.1-1.5,0.1c-0.2-2.1-0.3-4.2-0.5-6.3c-3.5-4.4-1.8-9.5-1.7-14.3c0.1-3.5,0.4-6.9-0.1-10.4
		c-0.3-7.2-0.3-14.5,1.2-21.6c-0.2-11.5-0.6-22.9-0.4-34.4c0.1-8.3,0.7-16.6,1.8-24.8c0.3-0.6,0.7-1.1,1.1-1.6
		c0.4-0.3,0.8-0.7,1.1-1c1,1.8,2.8,3.6,2.8,5.4c0.3,12.6,0.2,25.1,0.2,37.7C230.5,47.6,230.4,50.3,230.4,52.9z"/>
	<path style="fill:#208ACE;" d="M262.5,25.9c0.6-5-1-9.3-3.6-13.5c-1.7-2.9-3.3-6.2-0.4-9.5c1.3,0,2.6-0.1,3.9-0.1
		c0.1,7.9,1.1,9.2,8.6,12.2c1,0.4,1.6,1.9,2.4,2.9c1.1,8.1,0.2,16.2,0.5,24.3c0,1.6-1.3,2.5-2.1,1.3c-2.4-3.8-7.1-2.3-10-4.7
		C260.1,34.4,261.1,30.1,262.5,25.9z"/>
	<path style="fill:#43738F;" d="M116.3,24c13.2-0.7,26.1-5.4,39.6-3c2.2,0.4,4.4,1.3,6.5,1.9c2.1,2.1,5.1,2.2,7.6,3.6
		c6.3,3.6,7.5,6.9,4.4,13.3c-1.3,2.7-1.2,5.5-1.1,8.3c0.1,3.8-0.4,7.6-0.3,11.4c-0.9,7.1-0.5,14.3-1.5,21.4
		c-0.4,2.6-0.3,5.3-1.1,7.9c-1.1,3.8-1.1,7.5,0,11.3c1.7,6,1.2,12.2,0.8,18.4c-0.2,3.5-0.6,6.9-0.9,10.4c-2.5,4.1-7.1,2.7-9.8,1.9
		c-5.6-1.6-11.7-0.6-17.1-3.4c-0.9-0.5-1.8-0.9-2.6-1.4c-0.4-0.3-0.7-0.7-0.9-1.2c-0.2-0.7-0.1-1.5,0.3-2.1c5-2.2,9.9,0.3,14.9,0.3
		c0.7,0,1.5,0.6,2.4,0.5c0.3,0,0.7,0,1,0c-0.5-0.1-1.1,0-1.7,0c-3.2-1-5-3.6-7.3-5.8c-2.3-3.6-5.2-6.8-7.4-10.5
		c-0.7-1.2-1.5-2.2-1-3.6c2.9-4.6,0.7-9.8,1.8-14.6c2-9.2,0.7-18.9,4.6-27.8c2.4-5.7-1.1-12.7-8-15.5c-4.1-1.7-7.6-3.8-10.7-6.7
		C124.1,34.3,120,29.4,116.3,24z"/>
	<path style="fill:#377698;" d="M171.5,58.9c0-4.5-0.3-9,0.1-13.4c0.3-2.8,1.2-5.7,2.6-8.1c2-3.6-1-8.2-6.8-10.4
		c-1.9-0.7-3.3-2.6-4.9-4c3.8-0.2,7.6-0.6,11.4-0.5c4.9,0.1,9.2,1.7,13,5.2c3.5,3.2,7.7,5.5,11.6,8.3c2,1,4,2,6,3
		c0,5.5-0.6,11,1.5,16.3c0.5,1.2,0.4,2.7,0,4c-2.2,7.1-1.6,14.5-2.7,21.7c-0.7,4.4-3.8,8.2-3.2,12.9c-1.9,7.2-3.2,8.5-8.5,8.6
		c-3.5-5.4-5.8-10.9-5.3-17.7c0.5-7.4,0.2-15-3.1-22c-3-6.4-4-6.8-10.3-3.8C172.4,59.1,171.9,59,171.5,58.9z"/>
	<path style="fill:#1CA1CF;" d="M358.5,3.9c-3.4,1.1-5.2,3.6-6,7c0,0-0.1,0.1-0.1,0.1c-0.8,0.7-1.7,1.2-2.7,1.1
		c-8.3-1.2-15.5-5.4-23.2-8.1c-0.2-0.1-0.2-0.6-0.1-0.9c9.3,0,18.6,0,27.9,0C355.6,3,357.1,3.6,358.5,3.9z"/>
	<path style="fill:#22C0EE;" d="M326.4,2.9c8.7,2.7,17.4,5.3,26.1,8c0,1.3,0,2.6,0,3.9c-0.3,0-0.7,0.1-1,0.1
		c-13.5-1.5-24.1-11.8-38-12C317.7,2.9,322.1,2.9,326.4,2.9z"/>
	<path style="fill:#337BAB;" d="M198.5,93.9c1.1-5.9,2.4-11.8,3.4-17.8c1-6,2.2-12,2.4-18c0.1-4.6-1.4-9.3-1.7-14
		c-0.1-1.7,1.2-3.5,1.8-5.2c1.7-0.3,3.4-0.7,5.1-1c1.9,0,2.1-0.1,2.2,1.4c0.3,4,1.1,8.2-0.3,11.9c-1.6,4.3-1.6,8.5-1.5,12.8
		c0.1,7.8-0.6,15.7,0.5,23.4c0.6,4,1.8,7.8,4.5,10.9c0.7,1,0.8,2.2,0.9,3.4c0.8,4.7-0.1,9.1-2.6,13.1c-4.4,2.3-7.9,6.4-13.2,7.2
		c-2.8-0.8-3.7-3.2-1.9-4.9c4.9-4.9,2-10.7,2.1-16C200.3,98.7,199.5,96.2,198.5,93.9z"/>
	<path style="fill:#237EBA;" d="M214.4,98.9c-4.6-2.6-5.7-7.2-5.9-11.8c-0.3-10.1-0.3-20.3,0-30.4c0.2-5.4,1.3-10.7,1.8-16.1
		c0.1-0.9-0.6-1.8-0.9-2.8c-0.3-0.4-0.8-0.8-0.8-1.2c-0.8-9.5-1.5-19.1-2.3-28.6c-0.3-3.7,1.6-5.1,5-5.1c5,0,10,0,15,0
		c0,0.3,0,0.7,0,1c-2.8,2.6-6.3,1.7-9.5,1.9c-5.3,0.3-7.5,2.1-6.3,7.1c1.5,6.2,0.6,13.1,4.4,18.8c0.8,1.3,1.1,2.9,0.5,4.4
		c-1.6,4.3-1,8.9-1.6,13.3c-2.2,10-2,20-0.7,30.1c0.3,2.5,0.8,4.9,1.7,7.2C216.7,90.7,217.1,94.9,214.4,98.9z"/>
	<path style="fill:#2D97DF;" d="M262.5,38.9c0.5,0,1,0.1,1.5,0c4.2-1.5,7.6-1.2,9.5,4c0-8.3,0-16.6,0-24.9c0.3,5,0.7,10,1,15
		c-0.4,28-0.7,56-1.1,84c-3.5-1.1-2.8-4.2-2.8-6.6c0-3.9-0.2-7.1-4.3-9.6c-3.5-2.1-3.7-7-4.5-10.7c-2-10.1-3.2-20.4-1.7-30.7
		c0.7-4.6,0.2-9.3,0.4-13.9C260.7,43,260.4,40.6,262.5,38.9z"/>
	<path style="fill:#34E7FC;" d="M352.5,48.8c0,0.4,0,0.7-0.1,1.1c-6.6-3.4-13.1-6.9-19.8-10.1c-10.8-5.1-21.7-9.9-32.5-15.1
		c-5.9-2.8-11.5-6.2-17.3-9.2c-1-0.5-2.9-0.9-3.4-0.4c-2.3,2.4-3.5,0.9-4.7-0.9c-2.4-3.4-2-9.9,0.7-11.5c1,0,2,0,3,0
		c0.7,2.9,3.6,1.8,5.3,2.9c9,6,19.8,8.7,28.6,15.2c1.8,1.4,4.1,1,6.2,1.8c9.9,3.7,18.7,9.5,28.4,13.6c1.8,0.8,3.2,2.3,3.6,4.5
		C351.1,43.5,351.8,46.2,352.5,48.8z"/>
	<path style="fill:#57FDFD;" d="M350.4,40.9c-10.8-5.4-21.2-11.8-32.4-16c-5.7-2.1-10-6-15.5-8.2c-5.9-2.4-11.4-5.6-17.2-8.3
		c-1.9-0.9-3.9-1.7-5.9-2.3c-1.1-0.3-2.4-0.2-3.6-0.2c0.9-1,1.8-2,2.6-3c5.1,0,10.3-0.3,15.4,0.1c3.6,0.3,7.2,1,10.5,2.5
		c11.7,5.1,23.1,10.6,34.7,15.9c3,1.4,6.2,2.4,9.3,3.5c0.3,0,0.7,0,1,0c0.1,3.7-3.2,7.6,0.9,11c1,2,2,4,3,6
		C352.4,41.5,351.4,41.2,350.4,40.9z"/>
	<path style="fill:#1F71A2;" d="M311.5,292.9c-1.8,3.7-4.5,7.3-5.2,11.3c-0.7,4.2,0.5,8.7,0.9,13.1c0.4,4.7,5.1,6.1,7.3,9.3
		c7.8,11.4,19,12.6,31.2,11.3c1.6-0.2,3.2-0.6,4.9-1c2.1,0.9,4.2,1.7,6.2,2.6c3.9,1.8,7.9,3.6,11.8,5.4c-3.3,2-6.4,4.6-9.9,6
		c-5.3,2.2-6.5,5.3-2.9,9.7c1.5,1.9,2.6,4.2,3.8,6.3c-2.7,2-5.3,4-8,6c-3.8,0-7.7-0.4-11.4,0.1c-11.6,1.4-22,5.2-31,13.5
		c-9,8.2-15.1,9.8-25.4-3c-1.9-2.3-4.8-3.7-7.2-5.6c-0.2-0.4-0.5-0.9-0.5-1.4c-0.3-16.6-2.5-33.2-1.5-49.8c1.1-18.3-0.6-36.6,0-54.9
		c0.1-2.6-0.2-5.4,1.6-7.6c3.9-0.4,2.9,2.8,3,4.6c0.3,6.5,0.1,13,0.1,19.4c0,2.3,0,4.7,0.8,6.9c1.4,3.9,3.6,5.2,7.7,4.5
		c7-1.3,12.6-7.9,13-14.9c0.4-8.2-1.3-15.6-7.5-21.3c-4.9-4.5-8-4.5-13.7-0.9c-0.9,0.5-1.7,1.1-2.7,0.2c-1.8-3-1.4-6.1-0.7-9.2
		c2.9-4.8,5.8-6,10.7-4c14.7,5.9,22.5,17.4,25.3,32.6C312.8,285.5,314.5,289.4,311.5,292.9z"/>
	<path style="fill:#277EA8;" d="M231.5,501.9c-2.8,0.3-5.7,1.2-8.3,0.8c-4.2-0.7-8.1-1.1-9.4-7.4c-0.7-3.7-6.5-7.3-10.7-9.1
		c-5.8-2.4-9.9,1.5-12.6,6.7c-2-1-2.7-2.9-3.3-4.9c2.4-20.9,0.2-41.9,0.6-62.8c2.3-6.4,0.3-13.3,2-19.8c3.5-2.2,7.6-0.9,11.4-2
		c5.9-1.7,10.7-4.1,13.3-10c0.6-1.3,1.3-3.8,3.9-2c0.5,0.9,1,1.9,0.9,2.8c-1.1,9.4-0.4,18.9-1.9,28.3c-2.5,15.3-7,30.5-1.6,46.1
		c1.3,3.8,0.6,7.9,0.8,11.9c0.4,6.4,2.2,8.2,8.6,8.4c4.5,0.2,8.9-0.2,13-2.5c2.7-1.5,5.7-1.9,8.7-0.6c3,3.8,0.2,6.8-2.4,8
		C239.5,496,235.9,499.5,231.5,501.9z"/>
	<path style="fill:#1F6694;" d="M191.5,510.9c0.8-3.6,2.7-4.4,6.2-3c2.1,0.8,4.5,0.9,6.8,1c5.5,0.2,8.8,2.6,9.8,8
		c0.7,3.6,2.5,3.8,5.7,3.5c6.7-0.8,13.4-1.5,20.1-1.3c6.2,0.2,7.7,2.5,8,9c0,1,0.2,2,0.4,3c0.5,2.5,1.8,4.8-3,4.4
		c-1.9-0.2-4.1,3.3-6.2,5c-7.6,6.2-15.9,11.8-22.7,18.8c-4.3,4.3-9.4,2.8-13.9,4.4c-0.8,0.3-3.6-1.6-3.6-2.5c0-4.5-3.3-5.7-6.5-7.2
		c-3-1.2-3.5-4-3.6-6.6c-0.5-10.5,0-21.1-0.2-31.6C188.7,513.7,189.3,511.8,191.5,510.9z"/>
	<path style="fill:#3A7099;" d="M191.5,510.9c-0.1,0.2-0.2,0.3-0.2,0.5c-0.5,14.2-2.4,28.5,1.2,42.6c0,8.3,0,16.7,0,25
		c-0.1,0.3-0.3,0.6-0.4,0.9c-1.1,5.1-3.4,9.7-9,10.6c-3.9,0.6-10.7-6.1-11.5-11.1c-1.6-10.3-2.5-20.7,0.4-31
		c0.6-2.2,0.2-4.6,0.4-6.9c0.4-3.4,1-6.8,1.4-10.3c0.3-2.5,1.2-5.2,0.4-7.3c-2.4-6.4-2-12.6,0.2-18.9c1.1-1.1,2.2-2.2,3.5-3.1
		c3.5-2.7,6.2-5.9,8.1-9.9c0.6-1.2,1.1-2.5,2.4-3c0.7,1.3,1.3,2.7,2,4c0.2,2.7,0.3,5.4,0.5,8.1C191.1,504.3,191.3,507.6,191.5,510.9
		z"/>
	<path style="fill:#217AAA;" d="M231.5,501.9c3.1-3.7,5.4-8,11.2-8.6c1.8-0.2,3.2-4.1,4.8-6.4c0.7-0.6,1.5-0.7,2.3-0.4
		c8.9,2.9,15.3,11.6,15.7,21.1c0.1,2.5,0.2,4.9,1,7.3l0,0c1.2,2.3,1,4.9,1,7.3c0,12.3,0.5,24.5,1.5,36.8c0.9,10.9,1.1,21.9,2.2,32.8
		c0.2,1.9-0.2,3.6-1.6,5.1c-6.3,0-8.7-1.8-9.9-8.3c-2.9-15.5-2.9-31.2,0.5-46.4c1.6-7.5,1.9-14.5,0-21.3c-1.7-6.2-5.3-12.1-9.1-17.5
		c-1.4-2-5.7-2.6-8.8-2.8C238.7,500.4,235.1,501.4,231.5,501.9z"/>
	<path style="fill:#2588AE;" d="M269.5,596.9c-0.7-8.7-1.7-17.4-1.9-26.1c-0.6-18.6-0.7-37.2-1.1-55.8c0.7,1.8,1.7,3.6,1.9,5.4
		c0.3,3,0,6,0.1,8.9c0.6,12.1,0.9,24.3,2.2,36.4c1.1,10.4,3.2,20.8,4.8,31.2C273.5,596.8,271.5,596.8,269.5,596.9z"/>
	<path style="fill:#3586A3;" d="M178.5,502.9c-1.3,0.7-2.7,1.3-4,2c0.5-4.5-2.2-5.9-6-6c-2.7-0.1-5.3,0-8,0
		c-3.3,1.5-6.6,2.9-9.5,5.2c-3.4,2.6-7.6,1.9-11.3,0.4c-2.3-0.9-4.6-1.9-6.1-4.1c-1.8-5.2-0.8-10.5-0.9-15.8c0.4-4.5,0.1-8.8-2-13
		c-1.4-2.6-2.3-5.5-2.6-8.5c-0.3-2.2,0.1-4.4,0.6-6.5c2.6-9.9,2.4-19.9,1.4-30c-0.2-1.8-1-3.1-1.9-4.5c-3.8-5.7-3.9-9.8-0.4-14.1
		c3.8-4.6,9.6-6.1,15.3-3.7c2.8,1.2,5.1,3,6.8,5.6c0.5,0.8,1,1.7,1.4,2.6c5.4,10.9,10.4,11.9,19.2,3.7c0.4-0.3,0.8-0.5,1.3-0.7
		c0.6,0,1.1,0.2,1.5,0.7c1.8,3.1,1.6,6.6,0.9,9.7c-1.5,6.7-0.5,13.3,0.8,19.8c1.2,5.9,1.7,11.8,1.5,17.8c-0.3,7.6,0.8,15.3,0.1,22.9
		c-0.2,2.8,1,5.2,1.7,7.7C178.9,497,180.3,499.9,178.5,502.9z"/>
	<path style="fill:#267BA5;" d="M311.5,292.9c0.5-12-2.9-22.9-10.8-31.7c-4.2-4.6-10.2-7.8-15.9-10.7c-1.6-0.8-4.8,1.5-7.3,2.4
		c-2.4-2.3-2.2-5.2-1.5-7.9c1-3.8,1-7.5,1-11.3c0-22.7,0-45.5,0-68.2c0-2.5,0-5,0.4-7.4c1.3-11-0.2-22.1,1-33.1c0-0.3,0.1-0.7,0.1-1
		c3-2,6-2.4,9.3-0.4c1.6,1,4.9,2.1,5.4,1.5c4.8-5.5,3.1,0.8,4.6,2.1c6.4,5.6,5.7,13.8,8.1,20.8c1.8,5.1,6.3,7.4,10.5,10
		c-2.3,2.5-4.9,5-6.9,7.7c-0.6,0.8-0.3,2.7,0.2,3.9c1.8,4.3,3.8,8.6,5.8,12.8c5.1,10.9-0.4,22.1,0.7,33.2c0.1,1.2-0.9,2.5-1.5,3.7
		c-0.4,0.9-1.4,1.7-1.5,2.6c-1.5,10.7-10.3,20.2-5.5,32.1c0.9,2.2,0.4,4.9,0.8,7.3c0.2,1.2,0.5,2.6,1.2,3.6
		c5.2,6.6,7.9,13.8,7.7,22.3C317.5,291.7,316,293.5,311.5,292.9z"/>
	<path style="fill:#2180C8;" d="M262.5,38.9c-0.3,7.9-0.7,15.8-1,23.8c-0.4,11.9,0.8,23.7,4.2,35.1c0.3,1,1.3,2.5,2.1,2.5
		c5.8,0.6,4.5,4.8,4.7,8.4c0.2,2.7,0.6,5.5,0.9,8.2c0,1.3,0.1,2.6,0.1,4c0,6.7,0,13.3,0,20c-0.4,0.4-0.9,0.5-1.5,0.3
		c-4.2-2.2-6.8-6.2-9.5-9.9c-2.2-3-0.3-6.9,0-10.4c0-5.8-0.3-11.7,0.1-17.5c0.2-3.9-1.3-6.7-3.9-9.3c-7.4-7.6-8.6-16.9-4.7-26.6
		c1.9-4.8,2.6-10.2,3.5-15.3c1.2-7.4,1.8-14.8,2.9-22.1c0.2-1.5,1.4-2.8,2.1-4.2C262.5,30.2,262.5,34.5,262.5,38.9z"/>
	<path style="fill:#309CCD;" d="M272.5,140.9c0.3,0,0.6,0,1,0c0,4.6-0.1,9.3,0.1,13.9c0,1.3,0.9,2.5,1.4,3.7
		c0.5-1.1,1.5-2.1,1.6-3.2c0.4-8.2,0.6-16.5,1-24.7c0.1-1.9,0.6-3.8,0.9-5.7c0,11,0,22,0,33c-0.9,1.7-0.4,3.6-0.4,5.4
		c0,22.8,0,45.6,0,68.4c0,1.5,0.3,3.1-0.1,4.5c-0.5,1.8,0.3,4.6-2.3,5c-2.8,0.5-4-1.8-4.6-4.2c-0.6-1.8-0.5-3.6-0.5-5.4
		c0-27.6,0-55.1,0-82.7C270.5,146,270,143.1,272.5,140.9z"/>
	<path style="fill:#2588AE;" d="M266.5,514.9c-0.8-3.5-1.1-7.2-2.4-10.4c-1.5-3.7-3.4-7.5-6.1-10.4c-2.9-3-6.9-4.8-10.4-7.2
		c-3.8,0.9-7.5,2.1-11.3,2.6c-5.5,0.7-11.2,1.6-16.6,0.8c-2-0.3-4.4-4.8-4.8-7.7c-1.7-10.8-2.9-21.6-3.8-32.5
		c-0.3-3.8,0.8-7.8,1.4-11.7c0.6-3.7,1.7-7.3,2.1-11c1-9,1.9-18,2.7-27c0.3-3.1,0.2-6.3,0.3-9.5c-1.6-1.3-1.9-3.1-1.9-4.9
		c-0.1-6.1-0.6-12.3,0.2-18.4c0.9-7.1,0.7-14.3,0.8-21.4c0-19.3,0.7-38.5,1.4-57.7c0.5-15.4-0.2-30.9,1-46.3
		c-1.2-12.5,1.1-25,0.7-37.5c-0.1-2.5-0.2-5,1.2-7.2c0.4-0.6,1-0.8,1.7-0.5c0.6,11.7-1,23.6,1,35.3c0.5,0,0.9,0,1.4,0
		c0.5-3.8,1.1-7.5,1.6-11.3c-0.7,20.7-1.3,41.4-2,62c0,0.7,0,1.3,0,2c-1.2,10.4,0.7,20.9,0,31.3c-0.9,11.8,0.9,23.4-0.1,35.2
		c-1.1,12.8-0.5,25.6-0.2,38.4c0.1,3,0.3,6,0.2,9c-0.1,4.3-0.2,8.3,4.4,10.7c1.4,0.7,1.9,2.7,2.6,4.2c1.2,2.5,2,5.5,5.8,5
		c4.1-0.5,7.8-1.2,9.4-6c2.1-6.3,3.6-12.8,4.7-19.4c1.2-7.4,4.9-12.2,12.3-14c3.4-0.8,4.9-2.8,5.1-6.4c0.1-2.3-0.5-5.2,2.9-6
		c-0.3,16.1-0.6,32.2-1,48.3c-0.1,5.5-2.6,6.7-7.6,3.9c-0.8-0.4-2.5-0.1-3.1,0.5c-8.9,9.1-10.7,20.2-8.7,32.2
		c0.8,4.7,0.8,9.8,2.7,14.1c3.2,7.2,1.9,16.2,9,21.9c1.6,1.3,2.2,4,2.6,6.2c0.7,4.6,0.9,9.2,1.3,13.8
		C266.5,510.2,266.5,512.5,266.5,514.9z"/>
	<path style="fill:#217BA0;" d="M271.5,366.9c-0.3,2.4-0.9,4.8-0.9,7.2c-0.1,3.9-1.8,6-5.7,6.9c-6.1,1.3-10.2,3-11.5,12.1
		c-1.1,7-3.2,13.9-5,20.8c-1.3,4.9-5,6.7-12.4,7c-4.5,0.2-4.7-3.3-6-6.1c-1.2-2.5-1.3-6-5.6-5.8c-0.6,0-1.7-2.6-1.7-4
		c-0.1-17.5-0.2-35,0-52.5c0.2-20.6,0.6-41.3,1-61.9c0-1.9,0.6-3.8,1-5.7c0,7.3,0,14.7,0,22c0.2,5.7,2.1,11.3,0,17c0,3.3,0,6.7,0,10
		c0.6,6.2,2,12.2,1.2,18.7c-1.4,10.9,0.6,21.9,1,32.8c0.1,3.8,2.9,7,5,10.1c1.8,2.6,7,0.8,8.6-2.6c0.5-1.1,0.6-2.2,0.6-3.4
		c-0.5-11.6-0.1-23.2,0.8-34.8c0.3-3.8,0.4-7.3,4.3-9.4c2-1,1.5-3.1,2-4.8c1.1-3.9,1.8-8.2,6.6-9.5c3.3,2.7,6.9,5.1,9.7,8.2
		c1.5,1.6,1.5,4.6,2.4,6.9c0.5,1.2,1.5,2.2,2.3,3.4c0.5-1.3,1.3-2.5,1.6-3.8c0.5-1.9,0.7-3.8,1-5.7c3.2,6.3,3.1,12.7,0,19
		C271.5,361.5,271.5,364.2,271.5,366.9z"/>
	<path style="fill:#2584B4;" d="M271.5,358.9c0-6.3,0-12.7,0-19c0-30.7,0-61.3,0-92c-3-4.9-2.6-8.2,1-11c1,1.2,2,2.3,2.9,3.5
		c0.5-1.2,1.2-2.3,1.5-3.5c0.4-1.9,0.5-3.9,0.5-5.9c0-22.5,0-44.9,0.1-67.4c0-1.9,0.6-3.8,0.9-5.8c0,27.4,0.1,54.8,0,82.2
		c0,4.3-0.6,8.6-0.9,12.8c0,3.3,0,6.7,0,10c0.2,0.2,0.3,0.4,0.2,0.7c-0.1,0.2-0.2,0.3-0.2,0.3c-0.3,0.4-0.8,0.8-0.8,1.3
		c0.1,14.5,0.4,28.9,0.4,43.4c0,4.6-0.6,9.2-0.6,13.9c-0.1,18.5,0,37,0,55.5c0,1.3,0,2.7,0,4c-0.3-5.3-0.7-10.7-1-16
		C275.3,362.8,275.3,359.8,271.5,358.9z"/>
	<path style="fill:#39A9BE;" d="M423.5,483.9c-5.2,1-10.4,2.3-15.6,2.8c-3.4,0.3-6.9-0.5-10.4-0.8c-2.2,1.5-4.2,0.3-6.1-0.5
		c-9.2-3.8-18.7-5.6-28.6-4.7c-2.3,0.2-4.8,0.2-6.6,1.9c-4.4,4-10.4,4.1-15.4,6.6c-1.1,0.5-2.3,0.4-3.3-0.2c-1.3,0-2.7,0-4,0
		c-1.5-2.4,0.5-3.6,1.8-4.9c8.8-8.9,18.6-17,22-29.9c0.6-2.2,1.5-4.4,3.3-6.1c7-2.1,14.1-4,21.4-5.3c1.3-0.2,2.6,0.1,3.6,1.2
		c8.7,1.9,17.7,3,26.1,5.9c6.5,2.2,10,7.5,11.3,15.1C423.9,471.3,425.2,477.4,423.5,483.9z"/>
	<path style="fill:#45A6BB;" d="M360.5,448.9c-2.3,11.1-7.6,20.3-15.9,28c-4,3.7-7.4,7.9-11.1,11.9c-8.5-0.6-12.7-5.7-12.1-14.1
		c0.6-8.1,0.1-16.4,5.1-23.4c2.9-4.1,6.6-7.7,9.9-11.5c5.8-2.4,11.3-2.6,16.3,2c0.8,0.8,2.5,0.7,3.7,1
		C358.7,444.3,360,446.3,360.5,448.9z"/>
	<path style="fill:#4084B3;" d="M291.5,520.9c-0.3-4.3-0.7-8.6-0.9-12.9c-0.1-1.6-0.1-3.8,0.9-4.7c3.5-3.7,2.5-7.6,2.3-12
		c-0.2-3.7,1.7-7.6,2.7-11.4c0.7-0.1,1.3-0.1,2-0.2c4.2-0.3,8.3-5.9,12.5-0.8c2.9,3.5,5.2,7.5,7.7,11.3c2.3,3.6,4.8,7,6.6,10.9
		c1.3,2.7,1.5,5.9,2.1,8.8c-0.8,2.9-0.8,7.6-2.5,8.4c-5.8,2.6-12,4.8-18.8,3C301.4,520.1,296.5,516.9,291.5,520.9z"/>
	<path style="fill:#2CA6B5;" d="M337.5,488.9c6.3-3,12.6-6.1,19-8.9c1.6-0.7,3.5-0.9,5.3-1.1c12.6-1.4,24.3,2.1,35.7,7c0,2,0,4,0,6
		c-1.1,0.3-2.2,0.9-3.3,0.9c-14.8,0.1-29.6,0-44.4,0.1c-2.8,0-5.5,0.6-8.3,1C340.1,492.2,338.8,490.5,337.5,488.9z"/>
	<path style="fill:#3594B4;" d="M360.5,448.9c-1.3-2-2.7-4-4-6c2.4-2.1,4.7-4.3,7.3-6.2c2.6-2,5.5-3.7,8.1-5.7
		c6.4-5,13.4-5.8,20.4-1.6c4.5,2.7,8.8,5.7,13.2,8.6c-5.8,1.7-11.5,3.3-17.3,5c-0.9,0.3-1.8,0.7-2.7,1c-4.5,1.1-8.9,2.2-13.4,3.1
		C368.3,447.8,364.4,448.3,360.5,448.9z"/>
	<path style="fill:#1F7292;" d="M254.5,330.9c-3,4.4-6.1,8.7-5.1,14.5c0.1,0.5-1.4,1.9-2,1.8c-4.1-0.6-3.8,2.2-3.8,4.7
		c-0.2,12.9-0.3,25.9-0.4,38.8c0,3.6-3.6,7.5-7.6,8.1c-3.9,0.6-5.5-1.2-7.2-4.9c-6.8-15-4.6-30.5-3.9-46.1c0.2-4.7,0.1-9.3,0.1-14
		c2.4,9.6,4.9,19.2,7.6,30.2c1.2-4.5,2.5-8.1,3.2-11.7c1.9-9.4,3.4-18.8,5.4-28.1c0.4-2.1,2.2-3.9,3.4-5.7c0.4-0.7,1.6-1.1,1.7-1.8
		c0.7-6.2,6.9-11,4.7-17.9c0.6,1.5,1.7,3,1.8,4.5C253.1,312.5,253.8,321.7,254.5,330.9z"/>
	<path style="fill:#1A577C;" d="M226.5,286.5c0-3.3-0.3-6.7,0.1-10c0.4-4.2,1.2-8.4,1.9-12.6c0.6-3.7,1.5-7.4,2-11.1
		c0.7-5.9,8.3-10.3,13.5-7.3c1.2,0.7,2.3,2.6,2.4,4c0.8,12.5,1.7,25,2,37.5c0.3,11-3.9,19.8-14.5,24.7c-2.6,1.2-5,2.6-5.5-2.1
		c-0.8-7.7-1.8-15.3-2.8-23C225.9,286.5,226.2,286.5,226.5,286.5z"/>
	<path style="fill:#1F7292;" d="M224.5,323.9c0-5.7,0-11.3,0-17C224.9,312.5,228.8,318.2,224.5,323.9z"/>
	<path style="fill:#2378AF;" d="M272.5,236.9c-0.3,3.7-0.7,7.3-1,11c-4.3,3.2-6.3,2.5-9.1-1.6c-6.3-9.3-7.8-19.6-8-30.6
		c-0.2-14.6-1.2-29.2-1.9-43.8c0.7-3.6,1.4-7.2,1.9-10.9c0.5-3.4,0.7-6.8,1-10.1c1-2.3,2.4-4.4,2.9-6.8c1.5-7.7,2.7-15.5,4.1-23.2
		c-2.1,7.7,3.4,12,7.5,17c0.8,1,1.7,2,2.5,3C272.5,172.9,272.5,204.9,272.5,236.9z"/>
	<path style="fill:#237EBA;" d="M222.4,196.9c-0.3,0-0.6,0-1,0c-3.3-0.9-2.9-3.8-2.8-6.1c0.2-6.7-0.8-13.2-2-19.8
		c-0.3-1.9-0.8-3.5-2.6-4.5c-3.3-1.8-4.5-4.9-4.4-8.4c0.3-12.9-0.6-25.9,1-38.8c0.2-1.7,0.6-3.3,1.9-4.5c0.7-4.3,1.3-8.7,2-13
		c1-4.2,2-8.3,6.4-10.8c2-1.1,0-5.4,3.6-6.1c0,8.3,0,16.6,0,24.9c-0.3,1.6-0.8,3.2-0.9,4.7c-0.1,3.7,0,7.3,0,11
		C223.1,149.4,222.8,173.1,222.4,196.9z"/>
	<path style="fill:#1D84CE;" d="M212.5,48.9c0.6-4.5,1.3-9,1.8-13.5c0.1-1.1,0-2.4-0.6-3.2c-4.9-6.8-3.7-15-5-22.6
		c-0.5-3.4,1.8-5.8,5.8-5.7c4,0.1,8,0,11.9,0c-0.4,20-0.7,40-1.1,60c-2.7,1.3-4-0.7-4.1-2.6C220.8,55.3,217.3,51.6,212.5,48.9z"/>
	<path style="fill:#2B8ED4;" d="M212.5,48.9c6.4,0.5,9.2,3.6,10.1,10.1c0.2,1.7,1.8,3.3,2.8,4.9c-0.3,7-0.7,14.1-1,21.1
		c-0.3,1.6-0.6,3.1-0.9,4.7c-0.2,1-0.2,2.7-0.6,2.8c-5.1,1.2-5.9,6-8.4,9.5c0-1,0-2,0-3c-1-6.6-2.1-13.1-3-19.7
		C210.1,69,209.3,58.9,212.5,48.9z"/>
	<path style="fill:#367590;" d="M141.4,124.9c4,0.2,7.2,4.4,11.6,2c0.4-0.2,1.2-0.2,1.4,0.1c4.3,4.3,10.1,1.3,14.9,2.9
		c1.4,0.4,2,1.4,2.4,2.7c1.4,6,0.2,11.9-0.4,17.8c-1.5,13.2-2.6,26.4-0.4,39.6c2.2,14.2,1.5,28.5,1,42.8c-0.2,4.3-0.7,8.6,0.7,12.9
		c1.5,10.2,0.6,20.2-1.2,30.2c-0.3,0.5-0.7,1-1.2,1.3c-4.3-2.9-3.2-7.5-2.7-11.3c1.6-12.5-0.2-24.9-0.7-37.3
		c-0.2-5.6,0.4-11.3-1.7-16.8c-2.2-5.9-3.4-6.7-9.6-5.7c-11.1,1.8-17.3-3.5-17-14.6c0-2-0.8-3.9-0.6-5.9c-0.3-5.2,0.5-10.5-0.8-15.7
		c-0.4-1.8-0.6-4.2,2-4.8c1.8-0.4,0.7-1.6,0.7-2.3c0.1-3,0-5.9,0-8.9c0-0.8,0-1.6,0.1-2.4c0.2-1,0.5-2.1,1.5-2.4
		c1.4-0.4,2,0.7,2.7,1.6c2.2,3,4.4,5.9,7.8,7.5c-0.5-0.6-1.2-0.9-1.7-1.6c-2.9-9-6.1-17.8-8.9-26.8
		C141.2,128.1,140.1,126.5,141.4,124.9z"/>
	<path style="fill:#45829D;" d="M170.5,131.9c-0.3-0.7-0.7-1.3-1-2c-0.1-3.1-0.3-6.1-0.4-9.2c-0.3-7.1-0.5-14.1-0.9-21.2
		c-0.1-2.1-0.8-4.3-0.6-6.4c0.9-10.7,2-21.3,3.1-31.9c0.1-0.8,0.6-1.5,0.9-2.3c5.3-7.3,9.2-5.9,12.9,2.3c3.8,8.3,4.2,17,3.3,26
		c-0.3,2.6,1.2,5.4,1.9,8.1c0.6,2.2,1.2,4.4,1.8,6.6c4.9,3.2,3.9,8.2,3.6,12.7C194.2,126.7,181.8,135.3,170.5,131.9z"/>
	<path style="fill:#317EA0;" d="M170.5,131.9c4.3-0.8,9-0.7,12.7-2.7c10.2-5.4,12.9-15.5,8.3-27.3c4.7-0.6,6.3-3.9,7-8
		c1.3,2.9,3.2,5.6,3.9,8.6c0.7,3-0.1,6.3,0.4,9.3c0.4,2.6,0.8,4.2-2.4,5.2c-2.8,0.9-2.8,2.6,0.1,3.8c0.8,1.9,0,3.7-1,5.2
		c-2.6,3.9-2.2,8.1-1.8,12.5c1.3,16,1.9,31.9-2.1,47.7c-1.4,5.4-1.1,10.9-1.1,16.4c0,9.7-0.4,19.2-2.4,28.8
		c-1.6,7.5-1.7,15.5-0.7,23.4c2,17.1-0.1,34.2,0.1,51.3c0,2-0.1,4-1.5,5.7c-3.2,0.3-2.8-2.5-3.8-4.2c-0.8-4.1-0.8-8.3-0.2-12.4
		c0.5-3.6,0.7-7.3,0.6-10.9c-0.2-12.3-0.6-24.6,0.1-36.8c0.1-0.7,0,0.2,0-0.5c-0.2-15.9,1.6-31.9,0.5-47.8
		c-1.1-15.6-3-31.1-3.5-46.7c-0.2-5.6-0.5-5.8-5.8-6.5c-2.5-0.3-3.2,0.7-3.6,2.8c-1,5.4-0.8,10.9-1.5,16.4
		c-0.8,6.3-1.6,12.6-1.3,18.9c0.1,2.1,0.1,4.4-1.8,6c-0.3-1.1-1-2.2-0.9-3.2c0.5-12.8,1.3-25.5,1.8-38.3
		C170.5,142.9,170.4,137.4,170.5,131.9z"/>
	<path style="fill:#2674A1;" d="M189.5,254.9c0-11.6-0.1-23.1,2.6-34.6c1.7-7.4,0-15.6,0.5-23.4c0.5-7.6,2.6-15,2.9-22.6
		c0.4-13.4,0.4-26.8-0.3-40.2c-0.3-5.8,3.4-8.9,5.3-13.3c2-1.3,3.9-2.9,6.1-4c1.8-0.9,3.9-1.4,5.9-2c-0.3,14.4-0.7,28.7-1,43.1
		c-0.1,3.4-0.3,6.8,4.7,7.3c0.9,0.1,2.1,2.4,2.2,3.7c0.9,8.4,1.4,16.8,2.1,25.2c0.1,0.9,0.6,1.8,0.9,2.7c-0.3,15-0.7,30-1,45
		c-2,1.3-3.2-0.2-4.1-1.5c-2.2-3-5.4-4.9-7.9-7.6c-2.9-3.1-6.1-2.1-7.4,2c-1.4,4.8-1.7,10.3-7.7,12.4c-1.3,0.5-1,2.3-1.3,3.6
		C191.6,252.4,192.2,254.7,189.5,254.9z"/>
	<path style="fill:#1B6899;" d="M299.9,375.9c-10.6-0.2-17.6-9.1-15.9-17.1c0.6-3.1,0.2-6.7,1.7-9.2c1.9-3.2,4.7-6.5,7.9-8.1
		c8.6-4.3,17.4-4.5,25.8,1.3c2.7,1.9,5.1,3.5,5.3,7.3c0,1,2.3,1.9,3.6,2.8c1.3,0.9,2.5,1.8,3.8,2.7c-1.1,0.8-2.1,1.6-3.2,2.4
		c-5.9,3.9-11.7,8-17.7,11.7C306.8,372.3,302.3,374.6,299.9,375.9z"/>
	<path style="fill:#226C9B;" d="M277.5,263.9c0-0.3,0-0.7,0-1c5.3-7.4,14.6-6.4,20,2c4.6,7.2,5.9,15.1,4.9,23.3
		c-0.8,6.8-11.1,14.5-17.9,13.6c-4.3-0.5-6.8-4.2-6.9-10.6C277.4,282.1,277.5,273,277.5,263.9z"/>
	<path style="fill:#216C92;" d="M189.5,254.9c0.3-1.2,0.9-2.5,0.9-3.7c0-3.4,0.2-5.6,4.5-6.8c2.1-0.6,3.6-5.5,4.2-8.7
		c0.6-3.2,0.9-5.8,4.7-6.4c3.5-0.6,5.1,1,7.1,3.8c2.5,3.4,6.3,5.9,9.5,8.8c0,10.8,0.1,21.6,0,32.5c-0.2,15.8-0.6,31.6-1,47.3
		c-0.3,12.1-0.6,24.2-1,36.3c-0.3,11-0.7,21.9-1,32.9c-0.5,1-1,2-1.5,3c-2.3,5.1-5.3,9.4-11.5,10.1c-4.7,0.6-9.1,4.6-14,0.8
		c-3-1.5-3.5-4.3-3.8-7.1c-0.3-3.3-0.4-6.6-0.3-9.9c1.1-19.7,1.1-39.4,1.1-59.1c0-4.8-1.4-9.6,0.5-14.3c0.4-0.9,0.6-1.9,1.4-2.5
		C189.5,292.9,189.5,273.9,189.5,254.9z"/>
	<path style="fill:#458BA5;" d="M178.5,502.9c-3.9-10-4.2-20.5-3.9-30.9c0.3-12.1-0.7-24-3.3-35.9c-0.7-3.3,0.9-7.1,1.1-10.7
		c0.2-3.1,0.1-6.3,0.1-9.4c-4.5-6.1,1.9-15.8,9.5-16.2c4.1-0.2,7.1,3.6,7.3,9c0.2,5.4,0.2,10.8,0.3,16.2c0,10.3-0.1,20.7,0.1,31
		c0.1,4,1,7.9,0.9,11.9c-0.3,7.1-1.2,14.1-1.9,21.1C187.2,495,183.9,499.7,178.5,502.9z"/>
	<path style="fill:#3B818E;" d="M189.5,424.9c-0.7-5.2-1.5-10.4-1.9-15.6c-0.3-3.6-0.6-8.3-4.7-7.9c-3.3,0.3-6.9,3.5-9.1,6.4
		c-1.5,1.9-0.9,5.4-1.2,8.2c-0.3,0-0.7,0-1,0c-2.5-0.2-2.6-2.3-2.8-4c-0.4-3.8-0.6-7.7,0.5-11.4c0.8-2.7,0.8-5.2,0.3-7.8
		c-0.5-15.1,1.7-30.1,0.9-45.3c-1-20.9-2.9-41.7-2-62.6c0.1-2.8-0.5-5.7,2-7.9l0,0c3.4,0.9,2.7,3.8,2.8,6c0.2,9.8,0.2,19.6,0.1,29.4
		c-0.1,7,4.3,12.4,6.3,18.7c0.3,0.9,1.2,1.7,2.3,1.4c1.1-0.3,1.3-1.4,1.5-2.4c1.1-5,2.6-10,2.2-15.2c-0.2-2.4-0.4-5.1,1.8-7
		c0.7,1.3,1.3,2.7,2,4c0,14.9,0.1,29.8,0,44.8c-0.1,12.9-0.8,25.7-0.9,38.6c0,3.2,1.2,6.4,1.9,9.6
		C190.1,411.5,189.8,418.2,189.5,424.9z"/>
	<path style="fill:#317994;" d="M130.5,456.9c0-4.9,0.4-9.7,0-14.6c-0.5-6.4-1.3-12.8-2.4-19.2c-0.2-1.1-2.3-2.3-3.7-2.7
		c-4.7-1.2-5.7-4.3-4.8-8.3c0.9-3.8,2.8-7.5,3.1-11.4c0.4-4.2,2.4-6.8,5.7-8.9c0.3-2.2,1.9-3.3,3.7-3.5c4-0.3,6.7-2.5,9.2-5.3
		c1.9-2.2,4.2-4.3,7.2-2c2.7,2,2.7,4.8,1,7.6c-0.4,0.7-1.4,1.5-0.8,2.2c2.7,3.1,4.9,6.9,9.2,8.1c3.6,1,6.9-0.1,9.6-2.8
		c1.2-1.2,1.4-3.6,3.9-3.3c-0.3,6.1-0.7,12.2-0.9,18.3c0,1.6,0.6,3.1,0.9,4.7c-1.5,4.5-6.1,8.2-11.2,7.9c-4.7-0.3-8-3.3-9.5-7.7
		c-1.6-4.6-3.8-8.4-8.6-10.4c-5.2-2.1-10.2-0.8-13.8,3.8c-3.3,4.2-1.3,7.7,0.8,11.8c3.7,7.2,3.6,15.3,2.8,23.2
		C131.7,448.7,131,452.8,130.5,456.9z"/>
	<path style="fill:#2F6F8C;" d="M115.5,395.9c0.5-4.3,3.9-5.7,7.1-7.6c2.8-1.7,5.9-4,7.5-6.8c8.2-14.5,7.2-29.4,1.2-44.5
		c-1.2-2.9-0.7-6.8-0.2-10c2.3-13.6,3.2-27.2,1.1-41c-1.1-6.9-1.1-14.1-0.6-21.2c0.3-3.8,4.1-7.2,2.2-11.7c-0.3-0.6,0.5-2,1.1-2.7
		c6.1-6.9,6.9-15,5.7-23.7c-0.7-4.6-0.7-9.2-1.1-13.8c-1-5.3-2-10.7-3.1-16c0.1-1.3,0.1-2.6,0.2-4c1-2.7,1.9-5.4,2.9-8
		c0,3.4-0.7,7.1,0.3,10.2c0.9,2.8,3.9,5,5.7,7.6c2.2,3,4.4,3.7,8,2c2.6-1.2,5.8-1.1,8.7-1.4c0.6-0.1,1.7,0.5,1.9,1
		c1.5,4,3.6,8,4.1,12.1c0.9,7.9,0.8,15.9,1.2,23.8c0.3,6.1,0.9,12.2,0.9,18.3c0,4.9-0.7,9.8-0.9,14.7c0,1.2,0.6,2.5,0.9,3.7
		c0,9.2-0.2,18.3,0.1,27.5c0.5,18.9,1.5,37.8,1.9,56.7c0.2,10.6-0.6,21.2-0.9,31.8c-2.4,5.6-6.4,8.8-12.7,7.9
		c-1.7-0.2-3.7-0.9-4.7-2.1c-2.8-3-5.1-6.4-7.6-9.7c-0.4,0.4-0.9,0.9-1.3,1.3c1.4-1.3,3.3-2.3,4-3.8c0.5-1.1-0.4-3.1-1.2-4.4
		c-0.3-0.5-2.7-0.7-2.9-0.3c-3.7,6.3-10.5,7.6-16.5,10.1C124.1,393.2,119.8,394.5,115.5,395.9z"/>
	<path style="fill:#369198;" d="M187.5,307.9c-0.7,7.8-1.3,15.7-2.2,23.5c-0.2,1.5-1.4,3.5-2.7,4.1c-0.8,0.4-3.4-1-3.9-2.2
		c-2.6-6.5-6.1-13-6.9-19.8c-1.2-10.4-0.3-20.9-0.4-31.4c0-1.7-0.6-3.5-0.9-5.2c0.3-10.3,0.7-20.7,1-31c0.6-3.8,0.4-7.6,0.6-11.5
		c0.3-5.6,4.3-8.9,9.7-8.1c3.6,0.5,5.7,2.3,5.7,6.2c0,4.8-0.4,9.6,1,14.3C188.1,267.2,187.8,287.5,187.5,307.9z"/>
	<path style="fill:#37899E;" d="M188.5,246.9c-0.7-4.2-1.6-8.4-1.9-12.6c-0.2-3.5-0.7-6.2-5.1-6.5c-4.4-0.3-7.2,1.2-7.9,5.7
		c-0.4,2.3,0.1,4.7-0.2,7c-0.3,1.9-1.3,3.6-1.9,5.4c-0.3-1.7-0.9-3.5-0.9-5.2c-0.1-9.6,0.1-19.3-0.1-28.9c-0.1-7.3-0.6-14.6-1-21.8
		c0.7-10.4,1.5-20.8,2.2-31.2c0.3-4.3,0.5-8.6,0.8-12.8c0.2-2.9,0.9-4.7,4.2-2.5c1.2,0.8,3.1,1.7,4.1,1.3c4.4-1.9,4.5,0.7,4.7,3.8
		c1.2,17.8,2.8,35.7,3.8,53.5c0.4,6.8-0.5,13.6-0.7,20.4C188.5,230.5,188.5,238.7,188.5,246.9z"/>
	<path style="fill:#365C71;" d="M65.5,3.4c1.5,0.8,3.1,1.1,4.8,1C78.1,5,85.8,3.4,93.5,3.3c1.6,0,3.4,0.1,3.8-2.2
		C89.7,1,82.1,1,74.5,0.9C67.3,0.6,60.2,0,53.1,0c-0.1,0-0.3,0-0.4,0c1,0.7,2.1,1.5,3.1,2.3C59,2.4,62.3,2.7,65.5,3.4z"/>
	<path style="fill:#365C71;" d="M155.4,2.9c-7.6,0-15.3,0-22.9,0c-2.6-0.6-5.3-1.2-7.9-1.7C134.9,1.7,145.1,2.3,155.4,2.9z"/>
	<path style="fill:#365C71;" d="M110.4,1.1c-1.9,0-3.8,0-5.7,0C106.5,1.1,108.4,1.1,110.4,1.1z"/>
	<path style="fill:#24567D;" d="M70.5,531.9c4.4,5.7,9.6,2.4,13.5,0.1c7-4.2,14.9-4.8,22.4-7.1c0.8-0.2,1.7-0.1,2.4-0.4
		c8.9-2.9,16.7,0.3,20.9,8.7c3.3,6.4,5.7,12.5,4.1,20.3c-1.8,8.8-1.8,18.1-2,27.2c0,2.4,2,5,3.5,7.3c1.9,3.1,4.2,5.9,6.3,8.8
		c-3.2-1.4-7.4-2-9.4-4.4c-3.8-4.6-6.3-10.3-9.7-15.3c-2.2-3.2-4.4-7.4-7.6-8.9c-6.7-3-9.5-9.4-14.4-13.8c-3.5-3.2-6.8-6.7-10.3-10
		c-0.8-0.7-2-1.1-3.1-1.4c-1.9-0.4-3.9-0.8-5.7-0.5c-1.1,0.2-2,1.5-3,2.4c-1.8,0.4-3-0.6-3.7-1.9c-5.8-9.4-15.5-13.7-24.6-18.9
		c-6.8-3.9-13.9-7.1-20.7-10.9c-1.3-0.7-3.3-1.1-2.8-3.4c1-0.3,1.9-0.6,2.9-1c3.8-1.4,5.9,2.5,9.1,2.9c2.8,1,5,3.4,8,4
		c1.5,0.6,3,1.2,4.4,2.1c2.6,2.6,6,3.7,9,5.6c0.4,0.2,0.8,0.4,1.1,0.7c0.9,0.9,2.1,1.5,3.2,2.2C66.4,528.1,69.7,528.6,70.5,531.9z"
		/>
	<path style="fill:#24567D;" d="M93.3,557.2c0.3,0.5,0.5,1,0.8,1.5c-0.3,0.1-0.7,0.3-0.8,0.2c-0.4-0.4-0.8-1-1.1-1.5
		C92.5,557.5,92.8,557.4,93.3,557.2z"/>
	<path style="fill:#275B8E;" d="M38.5,512.9c-3-1.3-6-2.7-9-4c-5-2.7-10-5.3-15-8c-1.4-2.3-6.2-2.9-3.8-7.3
		c2.4-4.4,2.3-10.8,10-10.2c3.1,0.2,5.8-2,8.8-2.7c0.4-0.3,0.8-0.5,1.2-0.7c2.5-0.6,5.1-0.4,7.4-1.9c0.5-0.2,0.9-0.3,1.4-0.4
		c3.1,0.2,5.7-1.6,8.6-2c1.7-0.2,3.5-1.1,5.3-0.1c1.4,2.8-0.4,4.3-2.6,4.6C39,481.9,35,491,31.4,500.4c-0.9,2.2-0.2,3.8,1.3,5.4
		c1.8,1.9,4.1,3.4,6,5.1C39,511.5,39,512.2,38.5,512.9z"/>
	<path style="fill:#21486F;" d="M30.4,480.8c-3.5,1.4-6.9,2.7-10.4,4.1c-1.6,0.6-4,0.6-4.7,1.8c-1.8,2.8-3.5,6-4.1,9.3
		c-0.3,1.4,2.1,3.3,3.3,5c-4.6-2.5-9.3-4.9-13.9-7.6c-0.6-0.4-0.8-2.9-0.4-3.2c2.6-1.9,5.4-3.5,8.2-5.2c0-0.3,0.1-0.6,0.1-0.9
		C15.6,480.9,22.7,478.5,30.4,480.8z"/>
	<path style="fill:#2477BA;" d="M127.4,2.9c2.3,0.3,4.7,0.7,7,1c-0.4,1-0.5,2.4-1.3,3c-2.5,2.2-4.2,4.1,0.1,6.3
		c0.4,0.2,0.4,3-0.1,3.3c-3,1.7-5.8,2.8-9.7,1.5c-5.4-1.9-11.3-2.4-16.9-3.7c-1.4-0.3-2.6-1.6-3.8-2.4c1-1,1.9-2.1,2.9-3
		c1.3-1.2,2.7-2.2,4.8-3.9c-10.4,0-19.8,0-29.2,0c0-0.6,0-1.1,0-1.7C96.5,3.1,112,3,127.4,2.9z"/>
	<path style="fill:#2673A9;" d="M134.5,500.9c1.8,0.7,3.9,1,5.4,2.1c3.9,2.8,7.3,1.9,11.1-0.1c3-1.6,6.3-2.7,9.4-4
		c-3.3,2.5-6.5,5-9.9,7.3c-0.9,0.6-2.5,0.8-3.5,0.3c-2.8-1.2-4,0.1-5,2.3c-1.2,2.5-1.9,6.4-3.8,7.1c-5.1,2-10.8,3-16.3,3.6
		c-15,1.8-30.9-1.3-44.2,9c-2,1.6-4.8,2.2-7.2,3.2c-2.4-1.7-4.7-3.3-7.1-5c8.7-3.1,15.3-10.1,24.2-12.9c5.5-1.7,10.7-4.2,16.8-2.7
		c2.3,0.6,4.9,0.3,7.4-0.2c5.1-0.5,10.3,0.4,15.4-1.2c3.4-1,5.8-2.1,5.7-6.1C132.9,502.7,133.4,501.6,134.5,500.9z"/>
	<path style="fill:#277EB2;" d="M111.5,512.9c-8.7-0.1-17.5-1.1-25.5,3.7c-4.4,2.6-8.8,5.3-13.4,7.5c-2.9,1.4-6.1,1.9-9.2,2.9
		c-1-0.7-2-1.4-2.9-2c0.2-0.7,0.7-1.2,1.3-1.3c6.5-1.7,6.4-1.7,6.9-8.5c0.3-4.9,0.2-9.6-2.7-13.9c-1.5-2.9-3.1-5.7-4.1-8.8
		c-0.6-1.9-1.1-3.8,0.2-5.6c6,0.2,11.8,2.2,17.9,1.7c2.9,0.5,5.4-0.5,8-2c6.7-3.9,12.9-8.7,19.9-12.1c4.7-2.3,7.8-7.1,12.8-9.3
		c2.8-1.2,5.3-3.5,8.8-2.3c1.4,7.1,6.7,13.2,5,21c-1,0.6-2.1,0.6-2.8-0.1c-4.6-4.2-9.2-2.2-13.7,0c-7.5,3.8-14.6,8.1-14.7,18.1
		c0,3.7,0.1,7,4.9,7.6C109.9,509.7,111.9,510.2,111.5,512.9z"/>
	<path style="fill:#2883D1;" d="M67.5,500.9c4.8,6,3.1,13,2.4,19.5c-0.6,5.1-5.1,5.3-9.4,4.5l0,0c-2.5-3.5-6.8-3.8-10.1-5.9
		c-1.3-0.7-2.7-1.4-4-2c-1.3-1.2-3.2-1.9-3.4-4c-4.4-6.9-1.2-13.5,3.9-19.5c3.8-4.6,11.2-3.4,15.8,1.8
		C64.3,497.1,65.1,499.6,67.5,500.9z"/>
	<path style="fill:#2769A4;" d="M80.5,489.9c-6.2,0-12.5,1.1-18-3c-1.6-0.2-2.6-1.3-3.7-2.3c-4.8-4.5-10.1-2.8-13.1,3
		c-3.8,7.4-6.3,15-7.1,23.2c0,0-0.1,0.1-0.1,0.1c-3.1-2.2-6.3-4.4-9.4-6.8c-0.5-0.4-0.5-2-0.1-2.8c3.1-6.2,5.7-12.7,9.8-18.1
		c2-2.6,7-2.9,10.6-4.4c1.5-0.7,2.8-1.9,4.1-2.9c0.6-2.1,2.3-2.5,4.1-2.5c3,0.1,6.3-0.8,8.5,2.4c-0.3,6.1,4.2,6.6,8.5,7.4
		C78.3,483.8,81.4,485.1,80.5,489.9z"/>
	<path style="fill:#277399;" d="M80.5,489.9c-1.9-3.7-9.3-7.8-12.7-6.3c-4.1,1.8-3.3-0.3-2.8-2.7c0.3-1.3,0.3-2.6,0.5-3.9
		c1.1-1.5,2.9-2.3,4.3-3.3c6.8-4.5,9.5-11.2,12.4-18.5c2.7-6.9,4.6-14.6,10.4-20c1.1-1,1.9-2.4,2.3-3.8c2.3-7.7,6.8-14.3,9.5-21.9
		c2-5.7,6.1-10.5,10.5-14.9c4.3-1.9,8.5-4.7,13.6-2.9c-3.7,5.6-4.4,12.2-6.3,18.5c-1.2,4-1.1,7,3.3,9c2.9,1.3,4,4,4.5,7.2
		c1.4,9.1,2.1,18.1,0,27.2c-0.3,1.1-0.4,2.3,0.4,3.3c-0.3,2-0.7,4-1,6c-6.2,4-12.3,8.1-18.6,11.9c-5.7,3.5-11.7,6.7-17.5,10.1
		c-3.2,1.8-6.5,3.7-9.8,5.3C82.8,490.6,81.5,490,80.5,489.9z"/>
	<path style="fill:#1F81C8;" d="M111.5,512.9c-0.9-0.6-1.7-1.5-2.7-1.9c-2.3-0.8-6.2,1.5-6.3-3.3c-0.1-2.6-0.2-5.2-0.1-7.8
		c0.2-11.4,9.6-13.6,17.2-18.4c6.7-4.2,10.4-0.3,15,2.5c0,5.7,0,11.3,0.1,17c-0.2,9.9-1.9,11.7-12.1,12
		C118.8,513,115.1,512.9,111.5,512.9z"/>
	<path style="fill:#2673BD;" d="M38.5,510.9c-1.6-6.1-0.9-11.8,2.6-17.2c1.3-2,3-4.3,3.2-6.6c0.4-6.5,6.1-5.6,9.7-7.1
		c1.2-0.5,3.7,1.9,5.4,3.3c1.2,1,2.1,2.4,3.1,3.6c1.7,4.7,3.3,9.3,5,14c-2-1.5-4.2-2.9-6-4.6c-6.4-6.2-11.8-5.4-16.1,2.2
		c-2.7,4.8-4.1,9.4-0.8,14.4C42.5,512.2,40.5,511.5,38.5,510.9z"/>
	<path style="fill:#28668E;" d="M115.5,395.9c-4,6.1-8.6,11.7-11.5,18.8c-3.6,8.8-6.2,18.4-13.2,25.5c-1.2,1.3-1.5,3.5-2.2,5.3
		c-3.1,7.4-5.2,15.3-9.6,21.9c-2.8,4.3-6.9,9.3-13.4,9.5c-2.7-0.7-5.4-1.4-8-2.1c3.4-6,6.7-12,10.1-17.9c0.1-4.7,3-8.3,4.9-12.2
		c4.3-8.6,7.3-17.8,13.1-25.6c1.7-1.4,2.7-3.2,3.6-5.3c3.8-8.7,8.7-16.7,15.3-23.6c2.3-2.4,4.9-4.6,8-5.9c5.5-2.3,9.4-6,12.2-11.2
		c1-1.1,2-2.4,2.1-3.9c0.4-10.3,1.3-20.4-5.4-29.6c-5.9-8.2-5.3-17.8-4-27.3c0.2-1.6,1.4-2.5,2.7-3.4c6.6-4.6,8.6-10.1,6.1-17.7
		c-0.9-2.7-1.7-5.4-2.8-8c-0.8-8.7-2.2-17.5,2.3-25.7c2.2-7.3,7.3-13.5,7.7-21.4c0.1-2.2,2.6-3.5,2.7-5.8c0.1-1.4,0.3-2.7,1.5-3.5
		l0,0c0.3-2.8,0.6-5.7,1-8.5c0.3-1.9,0.6-3.7,0.9-5.6c1.1,0.7,1.6,1.8,1.7,2.9c1.5,12,4.1,24.2-4.1,35.1c-0.9,1.2-1.2,2.7-1.1,4.3
		c0.1,1.3,0.3,2.8-0.3,3.9c-5.5,10.6-2.1,21.5-1,32.3c1.3,12,0.2,23.9-1.8,35.7c-0.7,4.2-0.3,8,1.1,12.1c5,14.8,5.8,29.6-2.5,43.8
		c-1.9,3.3-4.6,5.6-8,7.2C120.4,391.5,117.3,392.8,115.5,395.9z"/>
	<path style="fill:#245F84;" d="M93.4,398.9c4.2-11.5,8.8-22.8,12.4-34.5c2-6.6,2.8-13.6,3.5-20.5c0.7-7.7,0.9-15.5,0.9-23.3
		c0-4.9-0.6-9.7-0.9-14.6c-0.2-3.9,0.4-7.5,3.5-10.4c0.9-0.8,0.9-2.5,1.3-3.8c1.4-1.3,2.8-2.6,4.2-3.9c1.4,0.3,2.6,0.7,3.4,2
		c0.4,5.2-0.5,10-4.6,13.5c-2.7,2.3-3.4,4.7-2.5,8.3c1.3,5.2-0.6,10.5-0.5,15.9c0.1,6.3,0.6,12,6.8,15.5c1.4,0.8,2.5,2.3,2.9,4
		c2.6,9.2,6,18.4,1.6,28.1c-2.8,6.2-8.7,8.5-14,11.9c-10.5,6.6-15.9,17.3-21.1,28.1c-0.9,1.9-2.5,3.4-3.8,5
		c-0.2-0.9-0.8-2.1-0.4-2.8c2.4-5.2,5-10.3,7.4-15.5C93.7,400.8,93.4,399.8,93.4,398.9z"/>
	<path style="fill:#29648D;" d="M125.5,374.9c0.3-2.5,1.2-5,0.9-7.4c-1.1-7.1-2.6-14.1-4.3-21.1c-0.3-1.4-2-2.8-3.4-3.4
		c-4.6-1.9-5.9-5.9-6-10.1c-0.1-5.5,0.5-10.9,0.7-16.4c0.1-2.1,0.6-5.1-0.6-6.2c-3.2-3.1-0.9-4.7,1.1-6.3c5.1-3.9,7.1-9,6.6-15.2
		c-0.3-3,1.7-4.1,4-5c4.8,6.2,4.7,13.4,3.6,20.5c-0.3,2.1-3.5,4.2-5.9,5.3c-2.7,1.2-4,2.5-3.8,5.5c0.4,6.2,0,12.6,1.3,18.6
		c0.8,3.7,4.8,6.7,6.2,10.4C129.6,354.4,130.7,364.7,125.5,374.9z"/>
	<path style="fill:#386075;" d="M143.1,103.6c1.7-0.6,1.2-2.6,1.4-4.3c0.7-10.1,1.3-20.3,2.1-30.4c0.1-1.1,0.6-2.2,0.9-3.4
		c1-4.9,2-9.8,2.9-14.7c0.1-0.5-0.7-1.5-1.3-1.8c-6.4-3.8-12.8-7.6-19.3-11.3c0,0-0.2,0.2-0.4,0.3c4.6,5.8,9.3,11.6,13.8,17.2
		c-0.8-0.1-2.2-0.2-3.7-0.3c-1.9-1.3-4.1-2-5.9-0.2c-1.7,1.6,0,3.4,0.4,5.1c0.2,0.6,0.4,1.3,0.5,1.9c1.3,5.3,3.3,10.4,4.2,15.7
		c0.7,4.1,1.5,8.1,0.4,12.3c-0.7,2.8-1.3,5.6-1.9,8.4C139.3,99.9,141.3,101.7,143.1,103.6z"/>
	<path style="fill:#2769A4;" d="M44.4,512.9c0.6,1.4,1.3,2.7,1.9,4.1c-2.6-1.4-5.3-2.7-7.9-4.1c0-0.7,0-1.3,0-2
		c0.2-0.2,0.3-0.4,0.5-0.6C41.8,508.8,42.9,511.3,44.4,512.9z"/>
	<path style="fill:#277EB2;" d="M50.4,519c3.4,1.9,9.4-0.7,10.1,5.9C57.1,522.9,53.7,520.9,50.4,519z"/>
</g>
<g>
</g>
<g>
</g>
<g>
</g>
<g>
</g>
<g>
</g>
<g>
</g>
<g>
</g>
<g>
</g>
<g>
</g>
<g>
</g>
<g>
</g>
<g>
</g>
<g>
</g>
<g>
</g>
<g>
</g>
</svg>
