<?xml version="1.0" encoding="utf-8"?>
<!-- Generator: Adobe Illustrator 17.0.0, SVG Export Plug-In . SVG Version: 6.00 Build 0)  -->
<!DOCTYPE svg PUBLIC "-//W3C//DTD SVG 1.1//EN" "http://www.w3.org/Graphics/SVG/1.1/DTD/svg11.dtd">
<svg version="1.1" id="Layer_1" xmlns="http://www.w3.org/2000/svg" xmlns:xlink="http://www.w3.org/1999/xlink" x="0px" y="0px"
	 width="583.4px" height="444.4px" viewBox="0 0 583.4 444.4" style="enable-background:new 0 0 583.4 444.4;" xml:space="preserve"
	>
<g id="if-i-could.svg">
	<g id="think3_1_">
		<polygon style="fill:#FFFFFF;" points="30.6,152 8,201.6 51.7,237.5 35.4,250.6 33.7,291.9 78.8,312.9 87.1,322.4 101.4,343.9 
			183.9,350.6 195.2,345.9 305,388.7 359.1,376.3 375.7,366.4 384.9,333.1 380.4,319.6 457.4,332.7 512,354.7 523.4,339.2 
			512.1,323.7 496.8,317.9 493.2,274.9 507.6,268.7 523.3,261.2 525.8,233.7 516.7,224.6 538.2,219.4 541.8,217.9 565.8,189.2 
			540.5,159.2 535.3,157.4 511.6,119.7 513.9,65.1 459.5,56.7 379.3,29.6 326.2,33.2 300.5,8.2 281.1,25.8 236.1,19.8 196.6,34.1 
			185.1,35.6 112.1,48.4 76.2,65 53.7,65.1 11,81.5 11.5,138.9 30.6,152 		"/>
		<path id="think3" d="M404.7,348.5l36.8,3.2l7.5,4.5l84,4l-2.4-45.3l-8.1-18.6l-1.8-13.5l26.4-47.9l15.4-9l1.1-72.5l-9.6-15.5
			l-16.3-31.5l-11.2-53.1L473,34.3L327.9,0l-54.1,3.2L266.2,4l-73.2,11.7l-7.7,0.1l-76.4,9.6l-7.9,1.9L64,43.9l-9.4,2.9L0.9,66.8
			L0,150.7l3.6,3.4l16.2,88.6l8.4,67.4l35.6,17.3l7.5,4.9l61.1,39.4l50.6-2.9l7.7,1.3l68.7,33.5l109.4-13.4L404.7,348.5L404.7,348.5
			z M30.6,152l-19.2-13.1L11,81.5l42.7-16.4L76.2,65l35.9-16.5l73-12.9l11.5-1.5l39.4-14.3l45,6l19.5-17.5l25.7,25l53.1-3.6
			l80.2,27.2l54.4,8.4l-2.3,54.6l23.7,37.7l5.3,1.8l25.3,30l-24,28.7l-3.6,1.5l-21.6,5.2l9.2,9.1l-2.6,27.5l-15.7,7.5l-14.3,6.2
			l3.6,43l15.3,5.8l11.3,15.5L512,354.7l-54.6-22l-77.1-13l4.6,13.5l-9.2,33.2l-16.6,10L305,388.7l-109.7-42.8l-11.3,4.7l-82.6-6.7
			l-14.3-21.5l-8.2-9.5l-45.1-21l1.7-41.3l16.3-13.1L8,201.6L30.6,152L30.6,152z"/>
		<g>
			<rect x="47.4" y="96.6" style="fill:none;" width="452.1" height="198"/>
			<path d="M92.3,128.2c0-1.8,1.2-3,2.9-3c1.7,0,2.8,1.2,2.8,3c0,1.7-1.1,3-2.9,3C93.5,131.2,92.3,129.9,92.3,128.2z"/>
			<path d="M102.2,128.2c0-1.8,1.2-3,2.9-3c1.7,0,2.8,1.2,2.8,3c0,1.7-1.1,3-2.9,3C103.4,131.2,102.2,129.9,102.2,128.2z"/>
			<path d="M112.2,128.2c0-1.8,1.2-3,2.9-3c1.7,0,2.8,1.2,2.8,3c0,1.7-1.1,3-2.9,3C113.3,131.2,112.2,129.9,112.2,128.2z"/>
			<path d="M138,100.9c0,1.4-1,2.6-2.7,2.6c-1.5,0-2.5-1.2-2.5-2.6c0-1.5,1.1-2.6,2.6-2.6C137,98.3,138,99.4,138,100.9z
				 M133.3,130.7v-23.2h4.2v23.2H133.3z"/>
			<path d="M155.1,130.7v-20h-3.3v-3.2h3.3v-1.1c0-3.3,0.7-6.2,2.7-8.1c1.6-1.5,3.7-2.2,5.7-2.2c1.5,0,2.8,0.3,3.6,0.7l-0.6,3.3
				c-0.6-0.3-1.5-0.5-2.7-0.5c-3.6,0-4.5,3.2-4.5,6.7v1.2h5.6v3.2h-5.6v20H155.1z"/>
			<path d="M170.5,119.8c0.1,5.7,3.7,8.1,8,8.1c3,0,4.8-0.5,6.4-1.2l0.7,3c-1.5,0.7-4,1.4-7.7,1.4c-7.2,0-11.4-4.7-11.4-11.7
				c0-7,4.1-12.5,10.9-12.5c7.6,0,9.6,6.7,9.6,10.9c0,0.9-0.1,1.5-0.1,2H170.5z M182.8,116.8c0-2.7-1.1-6.9-5.9-6.9
				c-4.3,0-6.1,3.9-6.5,6.9H182.8z"/>
			<path d="M194.5,119.8c0.1,5.7,3.7,8.1,8,8.1c3,0,4.8-0.5,6.4-1.2l0.7,3c-1.5,0.7-4,1.4-7.7,1.4c-7.2,0-11.4-4.7-11.4-11.7
				c0-7,4.1-12.5,10.9-12.5c7.6,0,9.6,6.7,9.6,10.9c0,0.9-0.1,1.5-0.1,2H194.5z M206.9,116.8c0-2.7-1.1-6.9-5.9-6.9
				c-4.3,0-6.1,3.9-6.5,6.9H206.9z"/>
			<path d="M216.2,96.6h4.2v34.1h-4.2V96.6z"/>
			<path d="M242.8,100.8v6.7h6v3.2h-6v12.5c0,2.9,0.8,4.5,3.2,4.5c1.1,0,1.9-0.1,2.4-0.3l0.2,3.2c-0.8,0.3-2.1,0.6-3.7,0.6
				c-2,0-3.6-0.6-4.6-1.8c-1.2-1.2-1.6-3.3-1.6-6v-12.7h-3.6v-3.2h3.6v-5.6L242.8,100.8z"/>
			<path d="M253.6,96.6h4.2v14.5h0.1c0.7-1.2,1.7-2.3,3-3c1.2-0.7,2.7-1.2,4.3-1.2c3.1,0,8.1,1.9,8.1,9.9v13.8h-4.2v-13.3
				c0-3.7-1.4-6.9-5.4-6.9c-2.7,0-4.9,1.9-5.7,4.2c-0.2,0.6-0.3,1.2-0.3,2v14h-4.2V96.6z"/>
			<path d="M282.6,119.8c0.1,5.7,3.7,8.1,8,8.1c3,0,4.8-0.5,6.4-1.2l0.7,3c-1.5,0.7-4,1.4-7.7,1.4c-7.2,0-11.4-4.7-11.4-11.7
				c0-7,4.1-12.5,10.9-12.5c7.6,0,9.6,6.7,9.6,10.9c0,0.9-0.1,1.5-0.1,2H282.6z M295,116.8c0-2.7-1.1-6.9-5.9-6.9
				c-4.3,0-6.1,3.9-6.5,6.9H295z"/>
			<path d="M313.9,126.4c1.2,0.8,3.5,1.7,5.6,1.7c3.1,0,4.5-1.5,4.5-3.5c0-2-1.2-3.1-4.3-4.3c-4.2-1.5-6.1-3.8-6.1-6.6
				c0-3.7,3-6.8,8-6.8c2.4,0,4.4,0.7,5.7,1.4l-1.1,3.1c-0.9-0.6-2.6-1.3-4.8-1.3c-2.5,0-3.9,1.4-3.9,3.2c0,1.9,1.4,2.8,4.4,3.9
				c4,1.5,6.1,3.6,6.1,7c0,4.1-3.2,7-8.7,7c-2.5,0-4.9-0.6-6.5-1.6L313.9,126.4z"/>
			<path d="M346.3,130.7l-0.3-2.9h-0.1c-1.3,1.8-3.8,3.5-7.1,3.5c-4.7,0-7.1-3.3-7.1-6.7c0-5.6,5-8.7,14-8.6v-0.5
				c0-1.9-0.5-5.4-5.3-5.4c-2.2,0-4.4,0.7-6,1.7l-1-2.8c1.9-1.2,4.7-2.1,7.6-2.1c7.1,0,8.8,4.8,8.8,9.5v8.7c0,2,0.1,4,0.4,5.6H346.3
				z M345.7,118.8c-4.6-0.1-9.8,0.7-9.8,5.2c0,2.7,1.8,4,4,4c3,0,4.9-1.9,5.6-3.9c0.1-0.4,0.2-0.9,0.2-1.3V118.8z"/>
			<path d="M356.6,113.7c0-2.4,0-4.4-0.2-6.3h3.7l0.2,3.7h0.1c1.3-2.2,3.5-4.3,7.3-4.3c3.2,0,5.6,1.9,6.6,4.7h0.1
				c0.7-1.3,1.6-2.3,2.6-3c1.4-1.1,2.9-1.6,5.1-1.6c3.1,0,7.6,2,7.6,10.1v13.7h-4.1v-13.2c0-4.5-1.6-7.2-5-7.2c-2.4,0-4.3,1.8-5,3.8
				c-0.2,0.6-0.3,1.3-0.3,2.1v14.4h-4.1v-13.9c0-3.7-1.6-6.4-4.8-6.4c-2.6,0-4.6,2.1-5.2,4.2c-0.2,0.6-0.3,1.3-0.3,2.1v14h-4.1
				V113.7z"/>
			<path d="M399,119.8c0.1,5.7,3.7,8.1,8,8.1c3,0,4.8-0.5,6.4-1.2l0.7,3c-1.5,0.7-4,1.4-7.7,1.4c-7.2,0-11.4-4.7-11.4-11.7
				c0-7,4.1-12.5,10.9-12.5c7.6,0,9.6,6.7,9.6,10.9c0,0.9-0.1,1.5-0.1,2H399z M411.4,116.8c0-2.7-1.1-6.9-5.9-6.9
				c-4.3,0-6.1,3.9-6.5,6.9H411.4z"/>
			<path d="M429.8,128.2c0-1.8,1.2-3,2.9-3c1.7,0,2.8,1.2,2.8,3c0,1.7-1.1,3-2.9,3C431,131.2,429.8,129.9,429.8,128.2z"/>
			<path d="M439.8,128.2c0-1.8,1.2-3,2.9-3c1.7,0,2.8,1.2,2.8,3c0,1.7-1.1,3-2.9,3C440.9,131.2,439.8,129.9,439.8,128.2z"/>
			<path d="M449.7,128.2c0-1.8,1.2-3,2.9-3c1.7,0,2.8,1.2,2.8,3c0,1.7-1.1,3-2.9,3C450.9,131.2,449.7,129.9,449.7,128.2z"/>
			<path d="M58.8,158.5c0,1.4-1,2.6-2.7,2.6c-1.5,0-2.5-1.2-2.5-2.6c0-1.5,1.1-2.6,2.6-2.6C57.7,155.9,58.8,157,58.8,158.5z
				 M54.1,188.3V165h4.2v23.2H54.1z"/>
			<path d="M65.7,188.3v-20h-3.3V165h3.3v-1.1c0-3.3,0.7-6.2,2.7-8.1c1.6-1.5,3.7-2.2,5.7-2.2c1.5,0,2.8,0.3,3.6,0.7l-0.6,3.3
				c-0.6-0.3-1.5-0.5-2.7-0.5c-3.6,0-4.5,3.2-4.5,6.7v1.2h5.6v3.2h-5.6v20H65.7z"/>
			<path d="M94.2,158.5c0,1.4-1,2.6-2.7,2.6c-1.5,0-2.5-1.2-2.5-2.6c0-1.5,1.1-2.6,2.6-2.6C93.2,155.9,94.2,157,94.2,158.5z
				 M89.5,188.3V165h4.2v23.2H89.5z"/>
			<path d="M127.4,187.4c-1.1,0.6-3.6,1.3-6.7,1.3c-7,0-11.6-4.8-11.6-11.9c0-7.2,4.9-12.3,12.5-12.3c2.5,0,4.7,0.6,5.9,1.2l-1,3.3
				c-1-0.6-2.6-1.1-4.9-1.1c-5.3,0-8.2,3.9-8.2,8.8c0,5.4,3.5,8.7,8.1,8.7c2.4,0,4-0.6,5.2-1.2L127.4,187.4z"/>
			<path d="M153.1,176.5c0,8.6-6,12.3-11.6,12.3c-6.3,0-11.1-4.6-11.1-12c0-7.8,5.1-12.3,11.5-12.3
				C148.6,164.5,153.1,169.4,153.1,176.5z M134.7,176.7c0,5.1,2.9,8.9,7.1,8.9c4,0,7.1-3.8,7.1-9c0-3.9-2-8.9-7-8.9
				S134.7,172.3,134.7,176.7z"/>
			<path d="M177.9,181.9c0,2.4,0,4.5,0.2,6.3h-3.7l-0.2-3.8H174c-1.1,1.9-3.6,4.3-7.7,4.3c-3.6,0-8-2-8-10.2V165h4.2v12.9
				c0,4.4,1.3,7.4,5.2,7.4c2.8,0,4.8-2,5.6-3.8c0.2-0.6,0.4-1.4,0.4-2.2V165h4.2V181.9z"/>
			<path d="M184.9,154.2h4.2v34.1h-4.2V154.2z"/>
			<path d="M216.3,154.2v28.1c0,2.1,0,4.4,0.2,6h-3.8l-0.2-4h-0.1c-1.3,2.6-4.1,4.6-7.9,4.6c-5.6,0-9.9-4.8-9.9-11.8
				c0-7.7,4.8-12.5,10.4-12.5c3.6,0,6,1.7,7,3.6h0.1v-13.9H216.3z M212.1,174.5c0-0.5,0-1.2-0.2-1.8c-0.6-2.7-2.9-4.9-6.1-4.9
				c-4.4,0-7,3.8-7,9c0,4.7,2.3,8.6,6.9,8.6c2.8,0,5.4-1.9,6.2-5c0.1-0.6,0.2-1.2,0.2-1.8V174.5z"/>
			<path d="M254.5,176.5c0,8.6-6,12.3-11.6,12.3c-6.3,0-11.1-4.6-11.1-12c0-7.8,5.1-12.3,11.5-12.3
				C250,164.5,254.5,169.4,254.5,176.5z M236.1,176.7c0,5.1,2.9,8.9,7.1,8.9c4,0,7.1-3.8,7.1-9c0-3.9-2-8.9-7-8.9
				S236.1,172.3,236.1,176.7z"/>
			<path d="M259.8,171.3c0-2.4,0-4.4-0.2-6.3h3.7l0.2,3.8h0.1c1.2-2.2,3.8-4.4,7.7-4.4c3.2,0,8.2,1.9,8.2,9.9v13.9h-4.2v-13.4
				c0-3.7-1.4-6.9-5.4-6.9c-2.8,0-4.9,2-5.7,4.3c-0.2,0.5-0.3,1.2-0.3,2v14h-4.2V171.3z"/>
			<path d="M286.5,154.2h4.2v34.1h-4.2V154.2z"/>
			<path d="M299.3,165l5.1,13.7c0.5,1.5,1.1,3.4,1.5,4.8h0.1c0.4-1.4,0.9-3.2,1.5-4.8l4.6-13.6h4.5l-6.3,16.6c-3,8-5.1,12-8,14.5
				c-2.1,1.8-4.1,2.5-5.2,2.7l-1.1-3.6c1.1-0.3,2.4-1,3.7-2.1c1.2-0.9,2.6-2.5,3.6-4.7c0.2-0.4,0.3-0.8,0.3-1c0-0.2-0.1-0.6-0.3-1.1
				l-8.6-21.4H299.3z"/>
			<path d="M330.6,154.2h4.2v14.5h0.1c0.7-1.2,1.7-2.3,3-3c1.2-0.7,2.7-1.2,4.3-1.2c3.1,0,8.1,1.9,8.1,9.9v13.8h-4.2v-13.3
				c0-3.7-1.4-6.9-5.4-6.9c-2.7,0-4.9,1.9-5.7,4.2c-0.2,0.6-0.3,1.2-0.3,2v14h-4.2V154.2z"/>
			<path d="M370.1,188.3l-0.3-2.9h-0.1c-1.3,1.8-3.8,3.5-7.1,3.5c-4.7,0-7.1-3.3-7.1-6.7c0-5.6,5-8.7,14-8.6V173
				c0-1.9-0.5-5.4-5.3-5.4c-2.2,0-4.4,0.7-6,1.7l-1-2.8c1.9-1.2,4.7-2.1,7.6-2.1c7.1,0,8.8,4.8,8.8,9.5v8.7c0,2,0.1,4,0.4,5.6H370.1
				z M369.5,176.4c-4.6-0.1-9.8,0.7-9.8,5.2c0,2.7,1.8,4,4,4c3,0,4.9-1.9,5.6-3.9c0.1-0.4,0.2-0.9,0.2-1.3V176.4z"/>
			<path d="M381.6,165l4.6,13.1c0.8,2.1,1.4,4,1.9,6h0.1c0.5-1.9,1.2-3.8,2-6l4.5-13.1h4.4l-9.1,23.2h-4l-8.8-23.2H381.6z"/>
			<path d="M404.9,177.4c0.1,5.7,3.7,8.1,8,8.1c3,0,4.8-0.5,6.4-1.2l0.7,3c-1.5,0.7-4,1.4-7.7,1.4c-7.2,0-11.4-4.7-11.4-11.7
				s4.1-12.5,10.9-12.5c7.6,0,9.6,6.7,9.6,10.9c0,0.9-0.1,1.5-0.1,2H404.9z M417.3,174.4c0-2.7-1.1-6.9-5.9-6.9
				c-4.3,0-6.1,3.9-6.5,6.9H417.3z"/>
			<path d="M437.2,188.3v-20H434V165h3.3v-1.1c0-3.3,0.7-6.2,2.7-8.1c1.6-1.5,3.7-2.2,5.7-2.2c1.5,0,2.8,0.3,3.6,0.7l-0.6,3.3
				c-0.6-0.3-1.5-0.5-2.7-0.5c-3.6,0-4.5,3.2-4.5,6.7v1.2h5.6v3.2h-5.6v20H437.2z"/>
			<path d="M470.3,181.9c0,2.4,0,4.5,0.2,6.3h-3.7l-0.2-3.8h-0.1c-1.1,1.9-3.6,4.3-7.7,4.3c-3.6,0-8-2-8-10.2V165h4.2v12.9
				c0,4.4,1.3,7.4,5.2,7.4c2.8,0,4.8-2,5.6-3.8c0.2-0.6,0.4-1.4,0.4-2.2V165h4.2V181.9z"/>
			<path d="M477.3,154.2h4.2v34.1h-4.2V154.2z"/>
			<path d="M488.6,154.2h4.2v34.1h-4.2V154.2z"/>
			<path d="M155.4,245.9c0.1-1.6,0.2-3.9,0.2-6v-28.1h4.2v14.6h0.1c1.5-2.6,4.2-4.3,7.9-4.3c5.8,0,9.8,4.8,9.8,11.9
				c0,8.3-5.2,12.4-10.4,12.4c-3.4,0-6-1.3-7.8-4.4h-0.1l-0.2,3.8H155.4z M159.8,236.6c0,0.5,0.1,1.1,0.2,1.5
				c0.8,2.9,3.3,4.9,6.3,4.9c4.4,0,7.1-3.6,7.1-8.9c0-4.7-2.4-8.6-6.9-8.6c-2.9,0-5.6,2-6.4,5.2c-0.1,0.5-0.2,1.1-0.2,1.7V236.6z"/>
			<path d="M195.8,245.9l-0.3-2.9h-0.1c-1.3,1.8-3.8,3.5-7.1,3.5c-4.7,0-7.1-3.3-7.1-6.7c0-5.6,5-8.7,14-8.6v-0.5
				c0-1.9-0.5-5.4-5.3-5.4c-2.2,0-4.4,0.7-6,1.7l-1-2.8c1.9-1.2,4.7-2.1,7.6-2.1c7.1,0,8.8,4.8,8.8,9.5v8.7c0,2,0.1,4,0.4,5.6H195.8
				z M195.2,234c-4.6-0.1-9.8,0.7-9.8,5.2c0,2.7,1.8,4,4,4c3,0,4.9-1.9,5.6-3.9c0.1-0.4,0.2-0.9,0.2-1.3V234z"/>
			<path d="M222.6,245c-1.1,0.6-3.6,1.3-6.7,1.3c-7,0-11.6-4.8-11.6-11.9c0-7.2,4.9-12.3,12.5-12.3c2.5,0,4.7,0.6,5.9,1.2l-1,3.3
				c-1-0.6-2.6-1.1-4.9-1.1c-5.3,0-8.2,3.9-8.2,8.8c0,5.4,3.5,8.7,8.1,8.7c2.4,0,4-0.6,5.2-1.2L222.6,245z"/>
			<path d="M231.7,233.3L231.7,233.3c0.7-0.8,1.5-1.8,2.2-2.6l6.8-8h5.1l-9,9.6l10.2,13.7h-5.1l-8-11.1l-2.2,2.4v8.7h-4.2v-34.1h4.2
				V233.3z"/>
			<path d="M270.1,222.6c-0.1,1.7-0.2,3.6-0.2,6.4v13.5c0,5.3-1.1,8.6-3.3,10.6c-2.3,2.1-5.5,2.8-8.4,2.8c-2.8,0-5.9-0.7-7.7-1.9
				l1.1-3.2c1.5,1,3.9,1.8,6.8,1.8c4.3,0,7.5-2.3,7.5-8.1v-2.6h-0.1c-1.3,2.2-3.8,3.9-7.4,3.9c-5.8,0-9.9-4.9-9.9-11.3
				c0-7.9,5.1-12.3,10.5-12.3c4,0,6.2,2.1,7.2,4h0.1l0.2-3.5H270.1z M265.7,231.8c0-0.7,0-1.3-0.2-1.9c-0.8-2.4-2.8-4.5-5.9-4.5
				c-4,0-6.9,3.4-6.9,8.8c0,4.6,2.3,8.4,6.9,8.4c2.6,0,4.9-1.6,5.9-4.3c0.2-0.7,0.3-1.5,0.3-2.3V231.8z"/>
			<path d="M276.6,229.9c0-2.7,0-5.1-0.2-7.2h3.7l0.1,4.6h0.2c1.1-3.1,3.6-5.1,6.4-5.1c0.5,0,0.8,0,1.2,0.1v4
				c-0.4-0.1-0.9-0.1-1.4-0.1c-3,0-5.1,2.3-5.7,5.4c-0.1,0.6-0.2,1.2-0.2,2v12.4h-4.2V229.9z"/>
			<path d="M312.9,234.1c0,8.6-6,12.3-11.6,12.3c-6.3,0-11.1-4.6-11.1-12c0-7.8,5.1-12.3,11.5-12.3
				C308.4,222.1,312.9,227,312.9,234.1z M294.4,234.3c0,5.1,2.9,8.9,7.1,8.9c4,0,7.1-3.8,7.1-9c0-3.9-2-8.9-7-8.9
				S294.4,229.9,294.4,234.3z"/>
			<path d="M337.6,239.5c0,2.4,0,4.5,0.2,6.3h-3.7l-0.2-3.8h-0.1c-1.1,1.9-3.6,4.3-7.7,4.3c-3.6,0-8-2-8-10.2v-13.6h4.2v12.9
				c0,4.4,1.3,7.4,5.2,7.4c2.8,0,4.8-2,5.6-3.8c0.2-0.6,0.4-1.4,0.4-2.2v-14.3h4.2V239.5z"/>
			<path d="M344.6,228.9c0-2.4,0-4.4-0.2-6.3h3.7l0.2,3.8h0.1c1.2-2.2,3.8-4.4,7.7-4.4c3.2,0,8.2,1.9,8.2,9.9v13.9h-4.2v-13.4
				c0-3.7-1.4-6.9-5.4-6.9c-2.8,0-4.9,2-5.7,4.3c-0.2,0.5-0.3,1.2-0.3,2v14h-4.2V228.9z"/>
			<path d="M391.3,211.8v28.1c0,2.1,0,4.4,0.2,6h-3.8l-0.2-4h-0.1c-1.3,2.6-4.1,4.6-7.9,4.6c-5.6,0-9.9-4.8-9.9-11.8
				c0-7.7,4.8-12.5,10.4-12.5c3.6,0,6,1.7,7,3.6h0.1v-13.9H391.3z M387.1,232.1c0-0.5,0-1.2-0.2-1.8c-0.6-2.7-2.9-4.9-6.1-4.9
				c-4.4,0-7,3.8-7,9c0,4.7,2.3,8.6,6.9,8.6c2.8,0,5.4-1.9,6.2-5c0.1-0.6,0.2-1.2,0.2-1.8V232.1z"/>
		</g>
	</g>
	<g id="think2_1_">
		<polygon style="fill:#FFFFFF;" points="537.1,380.7 525.6,391.5 538.4,399.2 548.5,391 537.1,380.7 		"/>
		<path id="think2" d="M538,412.5l24.1-21.1L538,370.2l-25.7,21.6L538,412.5L538,412.5z M537.1,380.7l11.4,10.3l-10.1,8.2l-12.7-7.7
			L537.1,380.7L537.1,380.7z"/>
	</g>
	<g id="think1_1_">
		<polygon style="fill:#FFFFFF;" points="555.7,430.4 569.7,431.6 570.1,425.9 556,425.1 555.7,430.4 		"/>
		<path id="think1" d="M563.7,410.1l-20.4,16.8l19.5,17.5l20.7-16.5L563.7,410.1L563.7,410.1z M555.7,430.4l0.3-5.3l14,0.8l-0.4,5.6
			L555.7,430.4L555.7,430.4z"/>
	</g>
</g>
</svg>
