<?xml version="1.0" encoding="utf-8"?>
<!-- Generator: Adobe Illustrator 17.0.0, SVG Export Plug-In . SVG Version: 6.00 Build 0)  -->
<!DOCTYPE svg PUBLIC "-//W3C//DTD SVG 1.1//EN" "http://www.w3.org/Graphics/SVG/1.1/DTD/svg11.dtd">
<svg version="1.1" id="Layer_1" xmlns="http://www.w3.org/2000/svg" xmlns:xlink="http://www.w3.org/1999/xlink" x="0px" y="0px"
	 width="1200px" height="146.3px" viewBox="0 0 1200 146.3" style="enable-background:new 0 0 1200 146.3;" xml:space="preserve">
<g id="panel.svg">
	<path style="fill:#1A1A1A;" d="M1196.4,4.3c-9.5,0.3-19-1.3-28.5-0.3c-1.3-0.1-2.6-0.3-4-0.3c-19.6,0-39.3,0-58.9,0
		c-1.7,0-3.3,0.2-4.9,0.7c-2.7,1-5.6,0.9-8.4,0.9c-34.4,0.2-68.8-0.4-103.2,0c-18.3,0.2-36.5-1.6-54.8-1.1c-4.8,0.1-9.5,1.4-14.4,1
		c-12.2-1.1-24.4-2.4-36.6,0C828.9,5.2,775,5.4,721.2,5.1c-5.8-0.8-11.7,0.1-17.4-0.6c-9.8-1.2-19.6-0.9-29.4-0.3
		c-1.6-0.1-3.2-0.2-4.7,0.6c-1.8,1.1-3.6,1.7-5.7,1.1c-2.5-0.7-4.9-0.2-7.4,0C646.4,6.8,636,6.8,625.9,5
		c-11.1-1.9-22.3-2.1-33.2-0.5c-7.3,1-14.4,1.7-21.7,1.7c-2.2,0.1-3.9-1.6-6.1-1.4c-38.5-0.2-77.1-0.1-115.6,0
		c-11.9,0.9-23.9,0.4-35.8,0.2c-19.4-0.3-38.8-2.6-58.2-0.5c-2,0.2-3.9,0.6-5.9-0.1c-3.2-0.8-4.8-5-8.8-4.1
		c-0.8,1.6-0.5,4.1-3.4,3.9c-3.5-0.4-7-0.3-10.5-0.4c-30.3-1.1-60.5,2.3-90.8,1.6c-13.1-0.3-26.3,0-39.5-0.1c-5.4,0-10.7,0-16.1,0
		c-2,0.1-3.7-0.8-5.1-2.1c-2.5-1.3-4.8-0.5-7.1,0.7c-2.9,1.5-5.6,2.8-9.2,2.6c-15-0.6-29.9-0.4-44.9-0.1c-2.8,0.1-5.5,0.8-8.1-0.7
		c-1.7-0.4-3.3-1-5.1-0.9c-7.8,1.1-15.6-0.5-23.4,0c-4.1,0.3-8,0.1-10.9-3.4c-1-1.1-2.5-1.6-4.1-1.3c-3.9,3.8-9,3.1-13.7,3.2
		c-9,0.2-18,1.3-27.1,0.9C14.3,5.3,7.1,6.1,0,7c0,46.2,0,92.5,0,138.7c1.7,0.9,3.6,0.5,5.4,0.5c396.4,0,792.8,0,1189.2,0
		c1.8,0,3.7,0.5,5.4-0.5c0-46.7,0-93.3,0-140C1199,4.7,1197.8,4.3,1196.4,4.3z"/>
	<path style="fill:#D6D6D6;" d="M17,120.5c0-0.5-0.1-1,0-1.5c0.7-2.1-1.9-6,2.3-6.2c3.6-0.2,8.9-2.2,9.2,4.8c0,0.7,1.8,1.3,2.2,2.1
		c0.9,1.8,2.3,4,1.9,5.5c-0.4,1.4-2.9,2.4-4.6,3.3c-0.8,0.4-1.9,0.1-2.9,0.1C17,128.7,17,128.7,17,120.5z"/>
	<path style="fill:#D4D4D4;" d="M345.8,120.4c0,8.3,0,8.3-9.1,8.2c-6,0-7.8-1.6-6.6-7.4c0.3-1.6,2.6-3.3,4.4-4
		c1.9-0.7,4.3,0,6.4-0.3c0.8-0.1,1.7-1,2.3-1.7c0.7-0.7,1.1-1.6,1.7-2.5c0.3,1,0.8,2,0.9,3C346,117.4,345.8,118.9,345.8,120.4z"/>
	<path style="fill:#D8D8D8;" d="M233.7,119.7c-1.6,0-3.2,0.1-4.7,0c-1.3-0.1-2.6-0.4-4-0.5c0.1-0.7,0.1-1.4,0.2-2.1
		c3.2,0.4,7.2-0.3,9.3,1.4c1.7,1.5,1.2,5.7,1.6,8.7c0,0.3-0.1,0.7-0.3,0.9c-1.4,1.7-14.1,0.5-14.9-1.6c-1.2-3.3,0.8-4.6,3.7-4.8
		c3-0.2,6.1,0,9.1,0C233.7,121,233.7,120.3,233.7,119.7z"/>
	<path style="fill:#D5D5D5;" d="M291.8,119.6c-2.2,0-4.3,0.1-6.5-0.1c-0.7,0-1.3-0.7-2-1.1c0.6-0.4,1.1-1.1,1.7-1.3
		c7-1.6,9.5,0.6,9.4,7.7c0,2.7-0.6,4-3.6,3.7c-2.8-0.3-5.7,0.3-8.4-0.2c-1.4-0.3-2.4-2.2-3.6-3.4c1.2-1.1,2.3-3.1,3.6-3.3
		c3.1-0.5,6.3-0.2,9.4-0.2C291.8,121,291.8,120.3,291.8,119.6z"/>
	<path style="fill:#DCDCDC;" d="M314.4,125.7c2,0.1,4,0.2,5.9,0.5c1,0.2,1.9,0.8,2.8,1.3c-1,0.4-1.9,1-2.9,1.1c-7,0.5-8.9-1-8-6.9
		c0.2-1.6,2.4-3.8,4.1-4.3c2.4-0.7,5.3-0.6,7.9,0c1.4,0.3,2.5,2.1,3.7,3.3c-1.3,1.1-2.4,3-3.8,3.2c-3.1,0.5-6.4,0.2-9.6,0.2
		C314.5,124.6,314.4,125.1,314.4,125.7z"/>
	<path style="fill:#EBEBEB;" d="M75.1,112.9c0,4.7,0,9.3,0,14c0,0.3-0.1,0.9-0.2,0.9c-4.2,0.2-8.5,0.7-12.7,0.3
		c-1.1-0.1-2.3-3.2-2.6-5.1c-0.8-4.3,1.4-6.2,5.6-5.8c0.7,0.1,1.3-0.1,2,0c3.5,0.4,6.4,0.1,6.2-5.1C74,112.4,74.5,112.7,75.1,112.9z
		"/>
	<path style="fill:#D5D5D5;" d="M260.8,128.4c0-3.2,0-6.4,0-9.5c0-0.2,0.1-0.5,0.1-0.5c3.8-0.4,7.6-1.1,11.4-0.9
		c1.4,0.1,2.8,2,4.1,3.2c0.3,0.2,0.2,1,0.1,1.4c-0.4,2.1-0.8,4.3-1.1,6.4c-0.4-1.9-0.7-3.9-1.3-5.8c-0.4-1.1-1.3-2-2-3.1
		c-0.7,1-1.4,2-2,3.1c-0.6,1.1-1,2.3-1.5,3.5c-0.4-1.1-0.7-2.3-1.3-3.4c-0.6-1.1-1.4-2.1-2.1-3.1c-0.7,1-1.8,2-2,3.1
		c-0.3,1.8-0.1,3.7-0.1,5.6C262.3,128.4,261.6,128.4,260.8,128.4z"/>
	<path style="fill:#CECECE;" d="M91.2,118.5c0.5,1,1.7,2.7,1.5,2.9c-1.1,1.1-2.5,2.3-3.9,2.5c-2.8,0.4-5.7,0.1-8.6,0.1
		c0,0.5-0.1,1.1-0.1,1.6c2.3,0.1,4.6,0.2,6.8,0.5c0.6,0.1,1.1,0.6,1.6,1c-0.3,0.5-0.6,1.2-1,1.4c-5.7,2.5-10.7-0.9-10.3-6.9
		c0.2-3,1.6-4.7,4.7-4.5C85,117.5,88.1,118.1,91.2,118.5c-1.7,2.1-4.2,1.6-6.4,1.6c2,0.6,3.8,1,5.4-0.7
		C90.6,119.2,90.9,118.8,91.2,118.5z"/>
	<path style="fill:#E0E0E0;" d="M54.8,119.6c-2.2,0-4.5,0.1-6.7-0.1c-0.6,0-1.2-0.7-1.9-1.1c0.6-0.4,1.1-1.2,1.7-1.2
		c7.9,0,9.9-0.9,9.1,8.2c-0.1,1.1-1.8,2.9-2.9,3c-2.7,0.4-5.7,0.5-8.4,0c-1.5-0.3-2.8-2.1-4.2-3.3c1.4-1.1,2.6-3,4.2-3.3
		c2.9-0.5,6-0.2,9-0.2C54.8,121,54.8,120.3,54.8,119.6z"/>
	<path style="fill:#CACACA;" d="M137.9,117.3c0,3.3,0.1,6.6-0.1,9.8c0,0.6-1.6,1.3-2.6,1.5c-2,0.2-4,0.1-5.9,0.1
		c-6.8,0-9.1-3.3-7.2-9.8c0.2-0.5,0.7-1,1.1-1.5c0.5,0.6,1,1.1,1.3,1.7c0.2,0.4,0.2,1,0.1,1.5c-0.9,4.7,1.1,5.7,5.6,5.7
		c4.4,0,6-1.2,5.4-5.5c-0.2-1.1,0.4-2.3,0.6-3.5C136.7,117.2,137.3,117.3,137.9,117.3z"/>
	<path style="fill:#CACACA;" d="M147.2,117.1c8.3,0,9.6,1.4,8.6,9.1c-0.1,0.8-0.8,1.6-1.2,2.4c-0.5-0.7-1-1.5-1.4-2.3
		c-0.2-0.4,0-1-0.1-1.5c-0.3-1.7-0.5-4.7-1.1-4.8c-2.9-0.5-6-0.3-8.9,0.1c-0.5,0.1-0.5,2.9-0.9,4.4c-0.3,1.3-0.8,2.6-1.2,3.8
		c-0.4-1.3-1.2-2.5-1.2-3.8C139.9,115.7,139.3,117.2,147.2,117.1z"/>
	<path style="fill:#CCCCCC;" d="M157.9,128.4c0-3.1,0-6.2,0-9.3c0-0.5,0.2-1.4,0.3-1.4c4.6,0,9.4-0.8,13.5,0.5
		c1.5,0.5,1.3,6.1,1.8,9.3c0,0.2-0.7,0.8-1,0.8c-0.4,0-1-0.4-1.1-0.8c-0.2-0.8-0.4-1.7-0.2-2.4c0.9-4.7-1.2-5.6-5.6-5.7
		c-4.5,0-6,1.2-5.3,5.6c0.2,1.1-0.4,2.3-0.6,3.5C159,128.5,158.4,128.5,157.9,128.4z"/>
	<path style="fill:#EAEAEA;" d="M238.1,129c0.5-4.3,0-10.5,1.4-10.9c4-1.3,9.1-1.2,12.9,0.4c1.7,0.7,1.4,6.3,1,10.1
		c-1.3-4.9-0.5-10.1-8.7-9.3C237,120,243.3,126.5,238.1,129z"/>
	<path style="fill:#E2E2E2;" d="M305.2,129c-5,0.2-7.1-1.9-6.5-6.7c0.3-2.1-4-4.3,0.1-6.3c0.6-0.3,1.6-0.1,2.3,0
		c0.2,0,0.3,0.6,0.6,0.7c2,0.5,4,1,5.9,1.4c-1.9,0.5-4,0.7-5.5,1.7c-0.8,0.6-1,2.6-0.9,4c0.1,0.8,1.1,1.7,1.9,2.2
		c0.4,0.3,1.3,0,1.9,0.1c1.6,0.3,3.2,0.8,4.8,1.1C308.3,128,306.8,128.5,305.2,129z"/>
	<path style="fill:#E1E1E1;" d="M190,122.7c-3.9,0.7-7.7,1.4-11.6,2.1c0,0.3-0.1,0.6-0.1,0.9c2.9,0.4,5.8,0.7,8.8,1.1
		c0,0.6-0.1,1.2-0.1,1.9c-3.2-0.3-6.6,0.2-9.4-1.1c-1.3-0.6-1.7-4.4-1.4-6.6c0.2-1.3,2.3-3.3,3.7-3.5c3-0.4,6.2,0.1,9.3,0.2
		c-1.4,4.4-5.2,1.7-7.7,2.7c0,0-0.2,0.3-0.2,0.3s0.1,0.4,0.2,0.4c2.2,0.4,4.3,0.3,6.4-0.2c0.5,0,0.9,0,1.4,0.1
		C189.8,121.4,190.3,121.8,190,122.7z"/>
	<path style="fill:#CBCBCB;" d="M114.4,116.5c1.9,0.6,3.7,1.3,5.6,1.9c-1.8,0.4-3.7,1.3-5.4,1.1c-4.5-0.5-6.4,0.9-5.7,5.6
		c0.2,1-0.8,2.1-1.2,3.2c-0.4-1.1-1.1-2.3-1.2-3.4C106.2,117.7,106.8,117.1,114.4,116.5z"/>
	<path style="fill:#F6F6F6;" d="M194.1,120.7c0.8-1.1,1.5-3,2.4-3.1c3.4-0.4,6.9-0.1,10.3-0.1c0,0.5,0.1,1,0.1,1.6
		c-1.9,0.2-3.9,0.6-5.8,0.4c-4-0.5-5.8,0.8-5.2,5c0.2,1.2-0.7,2.5-1.1,3.8c-0.1-0.1-0.3-0.1-0.4-0.2c-0.1-0.1-0.1-0.3-0.2-0.4
		C194.6,125.4,194.9,123,194.1,120.7z"/>
	<path style="fill:#E3E3E3;" d="M37.2,112.9c0,3.1,0,6.2,0,9.3c0,1.1,0,2.3,0.4,3.4c0.3,0.9,1,1.7,1.6,2.5c-0.4,0.1-1.1,0.5-1.3,0.4
		c-1-0.8-2.6-1.7-2.7-2.6c-0.3-4.3-0.1-8.6-0.1-12.9C35.8,112.9,36.5,112.9,37.2,112.9z"/>
	<path style="fill:#F9F9F9;" d="M256.8,128.3c0-3.6,0-7.1,0-10.7c0.4,0,0.7,0,1.1,0c0,3.6,0,7.1,0,10.7
		C257.5,128.3,257.2,128.3,256.8,128.3z"/>
	<path style="fill:#C7C7C7;" d="M178.1,119.9c2-0.4,3.9-0.8,5.9-1.2c1.7-0.4,3.4-0.7,5-1.1c2.4,1.3,4,2.7,0.9,5
		c-0.4-0.3-0.7-0.7-1.1-1C185.4,120.1,181.4,122.6,178.1,119.9z"/>
	<path style="fill:#FCFCFC;" d="M194.1,120.7c0.1,2.3,0.1,4.6,0.2,6.9C194.2,125.4,194.1,123,194.1,120.7z"/>
	<path style="fill:#B1B1B1;" d="M259.2,114.1c-1,0.4-1.5,0.9-2,0.8c-0.4-0.1-0.7-0.8-1-1.2c0.5-0.3,0.9-0.9,1.4-0.9
		C258,112.8,258.4,113.5,259.2,114.1z"/>
	<path style="fill:#191919;" d="M25.2,121.9c1.2,0,2.4-0.2,3.4,0.1c0.7,0.2,1.7,1.1,1.8,1.7c0.1,0.7-0.7,2.1-1.2,2.1
		c-2.8,0.2-5.6,0.2-8.4,0c-0.5,0-1.3-1.4-1.2-2.1c0.1-0.7,1-1.6,1.7-1.8C22.5,121.7,23.9,122,25.2,121.9z"/>
	<path style="fill:#1E1E1E;" d="M20.5,121.4c-0.4-1.4-1.4-3-0.9-4c0.5-1.1,2.3-2,3.6-2.2c0.8-0.1,1.9,1.3,2.8,2.1
		c-1,0.9-1.9,1.8-2.9,2.7C22.2,120.5,21.3,120.9,20.5,121.4z"/>
	<path style="fill:#1E1E1E;" d="M337.5,119.4c2.3,1,5.9-1.6,5.9,3.4c-0.1,5.5-4.1,2.9-6.5,3.3c-2.3,0.4-4.9,1-4.8-3.3
		C332.2,117.6,335.9,120.6,337.5,119.4z"/>
	<path style="fill:#191919;" d="M233.7,125.6c-3.5,0-7,0-10.4,0c0-0.3,0-0.7,0-1c3.5,0,6.9,0,10.4,0
		C233.7,124.9,233.7,125.3,233.7,125.6z"/>
	<path style="fill:#1C1C1C;" d="M281.4,124.5c3.4,0,6.9,0,10.3,0c0,0.4,0,0.7,0,1.1c-3.5,0-6.9,0-10.4,0
		C281.4,125.2,281.4,124.8,281.4,124.5z"/>
	<path style="fill:#3C3C3C;" d="M314.6,120c3.6,0,7.2,0,10.9,0c0,0.4,0,0.7,0,1.1c-3.6,0-7.2,0-10.9,0
		C314.6,120.8,314.6,120.4,314.6,120z"/>
	<path style="fill:#252525;" d="M67.6,126.4c-2.4-0.7-5.7,1.5-5.9-3.3c-0.1-5,3.3-3.6,5.7-3.5c2.3,0.1,5.8-1.9,5.8,3.3
		C73.1,128.3,69.3,125.4,67.6,126.4z"/>
	<path style="fill:#363636;" d="M90.9,120c-2.3,2.9-8.9,2.7-10.9-0.2C83.6,119,87.3,118.7,90.9,120z"/>
	<path style="fill:#C7C7C7;" d="M90.9,120c-3.6-0.1-7.3-0.2-10.9-0.2c3.7-0.4,7.5-0.8,11.2-1.2l0,0C91.1,119,91,119.5,90.9,120z"/>
	<path style="fill:#505050;" d="M49.5,123.4c1.9,0.5,3.7,1,5.5,1.5c-1.8,0.5-3.6,1.5-5.4,1.5c-1.8,0-3.6-0.9-5.5-1.5
		C45.8,124.4,47.6,123.9,49.5,123.4z"/>
	<path style="fill:#363636;" d="M178.1,119.9c2.9-0.1,5.9-0.4,8.8-0.3c0.7,0,1.3,1.3,1.9,2c-0.3,0-0.6,0.1-0.9,0.2
		c-3.3,0.3-6.7,1-9.9-0.4C178.1,121,178.1,120.5,178.1,119.9z"/>
	<path style="fill:#C7C7C7;" d="M178.1,121.5c3.3,0.1,6.6,0.3,9.9,0.4C184.7,121.8,181.4,121.6,178.1,121.5z"/>
	<path style="fill:#D4D4D4;" d="M369.4,120.8c0,8.3,0,8.3,9.4,8.2c6.2,0,8-1.6,6.8-7.4c-0.3-1.6-2.7-3.3-4.5-4c-2-0.7-4.4,0-6.6-0.3
		c-0.9-0.1-1.7-1-2.4-1.7c-0.7-0.7-1.2-1.6-1.7-2.5c-0.3,1-0.8,2-0.9,3C369.3,117.8,369.4,119.3,369.4,120.8z"/>
	<path style="fill:#1E1E1E;" d="M378,119.7c-2.4,1-6.1-1.6-6,3.4c0.1,5.5,4.2,2.9,6.6,3.3c2.3,0.4,5.1,1,5-3.3
		C383.4,118,379.6,121,378,119.7z"/>
	<path style="fill:#CCCCCC;" d="M402.3,117.4c0,3.3,0,6.5,0,9.8c0,0.5,0.1,9.6,0,9.6c-5-3.7,2.7-8.4-12.9-8.6
		c-1.4,0-1.2-6.4-1.7-9.8c0-0.3,0.6-0.9,1-0.9c0.3,0,0.9,0.4,1,0.8c0.2,0.8,0.4,1.7,0.2,2.6c-0.9,5,1.1,5.9,5.3,6
		c4.2,0,5.6-1.3,5-5.9c-0.2-1.2,0.4-2.4,0.6-3.6C401.2,117.3,401.8,117.4,402.3,117.4z"/>
</g>
<g>
</g>
<g>
</g>
<g>
</g>
<g>
</g>
<g>
</g>
<g>
</g>
<g>
</g>
<g>
</g>
<g>
</g>
<g>
</g>
<g>
</g>
<g>
</g>
<g>
</g>
<g>
</g>
<g>
</g>
</svg>
